<svg width="21" height="20" viewBox="0 0 21 20" fill="none" xmlns="http://www.w3.org/2000/svg">
<path d="M11.9091 18.0491L10.9429 18.9834C10.5338 19.3791 9.87224 19.3791 9.46749 18.9834L1.00683 10.8056C0.59772 10.4099 0.59772 9.77016 1.00683 9.37874L9.46749 1.19663C9.8766 0.800993 10.5381 0.800993 10.9429 1.19663L11.9091 2.13101C12.3225 2.53085 12.3138 3.18323 11.8917 3.57466L6.64727 8.40648H19.1555C19.7343 8.40648 20.2 8.85683 20.2 9.41662V10.7635C20.2 11.3232 19.7343 11.7736 19.1555 11.7736H6.64727L11.8917 16.6054C12.3182 16.9968 12.3269 17.6492 11.9091 18.0491Z" fill="#003B5C"/>
</svg>
