<svg width="20" height="20" viewBox="0 0 20 20" fill="none" xmlns="http://www.w3.org/2000/svg">
<path d="M18.4411 8.50352L19.4321 9.49448C19.8517 9.91407 19.8517 10.5926 19.4321 11.0077L10.7589 19.6853C10.3393 20.1049 9.66085 20.1049 9.24572 19.6853L0.568115 11.0077C0.148519 10.5881 0.148519 9.90961 0.568115 9.49448L1.55908 8.50352C1.98314 8.07946 2.67502 8.08838 3.09015 8.52137L8.21458 13.9002V1.07131C8.21458 0.477625 8.69221 0 9.28589 0H10.7143C11.308 0 11.7856 0.477625 11.7856 1.07131L11.7856 13.9002L16.91 8.52137C17.3252 8.08392 18.0171 8.07499 18.4411 8.50352Z" fill="#DC008B"/>
</svg>
