<svg width="20" height="20" viewBox="0 0 20 20" fill="none" xmlns="http://www.w3.org/2000/svg">
<path d="M8.79093 2.13101L9.75711 1.19663C10.1662 0.800993 10.8278 0.800993 11.2325 1.19663L19.6932 9.37453C20.1023 9.77016 20.1023 10.4099 19.6932 10.8013L11.2325 18.9834C10.8234 19.3791 10.1619 19.3791 9.75711 18.9834L8.79093 18.0491C8.37747 17.6492 8.38617 16.9968 8.80834 16.6054L14.0527 11.7736H1.54453C0.965685 11.7736 0.5 11.3232 0.5 10.7635V9.41662C0.5 8.85683 0.965685 8.40648 1.54453 8.40648H14.0527L8.80834 3.57466C8.38182 3.18323 8.37312 2.53085 8.79093 2.13101Z" fill="#003B5C"/>
</svg>
