<svg width="17" height="10" viewBox="0 0 17 10" fill="none" xmlns="http://www.w3.org/2000/svg">
<path d="M16.9967 1.60714C16.9967 1.47321 16.9297 1.32254 16.8292 1.2221L15.9922 0.385044C15.8917 0.284598 15.7411 0.217634 15.6071 0.217634C15.4732 0.217634 15.3225 0.284598 15.2221 0.385044L8.64286 6.96429L2.06362 0.385044C1.96317 0.284598 1.8125 0.217634 1.67857 0.217634C1.5279 0.217634 1.39397 0.284598 1.29353 0.385044L0.456473 1.2221C0.356027 1.32254 0.289063 1.47321 0.289063 1.60714C0.289063 1.74107 0.356027 1.89174 0.456473 1.99219L8.25781 9.79353C8.35826 9.89397 8.50893 9.96094 8.64286 9.96094C8.77679 9.96094 8.92746 9.89397 9.0279 9.79353L16.8292 1.99219C16.9297 1.89174 16.9967 1.74107 16.9967 1.60714Z" fill="#DC008B"/>
</svg>
