<svg width="101" height="201" viewBox="0 0 101 201" fill="none" xmlns="http://www.w3.org/2000/svg">
<g opacity="0.7" clip-path="url(#clip0)">
<path d="M97.4706 187.109C72.5553 172.831 51.5519 151.962 37.4158 126.954C36.3029 124.819 39.5981 122.99 40.7109 125.125C54.5181 149.41 75.0418 170.002 99.2836 183.785C101.363 184.985 99.5497 188.31 97.4706 187.109Z" fill="#073C5C"/>
<path d="M24.486 90.8086C29.1529 89.5581 31.1379 96.4616 26.6647 97.9306C21.9731 99.5932 19.693 92.0929 24.486 90.8086Z" fill="#E4549E"/>
<path d="M29.6612 106.591C31.864 105.73 33.6908 106.998 34.4162 108.697C35.1417 110.395 34.7657 112.523 32.5967 113.51C30.4277 114.497 28.4747 113.263 27.7155 111.438C26.9563 109.614 27.4584 107.452 29.6612 106.591Z" fill="#E4549E"/>
<path d="M18.4568 71.3346C17.0729 60.62 16.7657 49.8872 17.6612 39.1025C17.9358 36.5955 21.587 37.1042 21.4048 39.4513C20.5678 49.9499 20.8074 60.4304 22.2499 70.8591C22.606 73.197 18.8467 73.7988 18.4568 71.3346Z" fill="#073C5C"/>
<path d="M26.1186 7.09483C30.8308 8.53597 28.5429 15.6381 23.9907 14.2893C19.2785 12.8481 21.5663 5.74602 26.1186 7.09483Z" fill="#E4549E"/>
<path d="M22.66 19.9181C24.9823 20.5126 25.8091 22.5892 25.4579 24.3056C25.2822 25.1638 24.8544 26.0896 24.039 26.5785C23.3836 27.1596 22.3746 27.43 21.1042 27.2297C16.3087 26.4868 17.8892 18.7631 22.66 19.9181Z" fill="#E4549E"/>
<path d="M43.1578 159.484C52.8368 164.325 62.4055 168.251 71.8142 172.083C81.0968 175.95 90.1856 179.598 99.2836 183.785L96.9908 186.832C83.725 172.136 73.4436 155.965 67.4597 139.183C66.6329 137.106 70.1217 135.495 70.7886 137.479C76.6711 153.883 86.5989 169.744 99.6372 184.095C101.027 185.751 99.3222 187.965 97.3107 187.017C88.3727 182.923 79.41 179.241 70.1612 175.5C61.0386 171.726 51.6299 167.893 41.9846 163.178C39.6532 162.045 40.8264 158.351 43.1578 159.484Z" fill="#073C5C"/>
</g>
<defs>
<clipPath id="clip0">
<rect width="193.393" height="52.3636" fill="white" transform="matrix(-0.258819 -0.965926 -0.965926 0.258819 100.633 186.803)"/>
</clipPath>
</defs>
</svg>
