<svg width="14" height="25" viewBox="0 0 14 25" fill="none" xmlns="http://www.w3.org/2000/svg">
<path d="M1.99656 -1.99462e-06C1.80412 -1.98621e-06 1.58763 0.100201 1.4433 0.2505L0.240549 1.50301C0.0962197 1.65331 -1.01066e-06 1.87876 -1.0019e-06 2.07916C-9.93142e-07 2.27956 0.0962197 2.50501 0.240549 2.65531L9.69416 12.5L0.24055 22.3447C0.0962206 22.495 -9.96427e-08 22.7204 -9.08829e-08 22.9208C-8.10281e-08 23.1463 0.0962206 23.3467 0.24055 23.497L1.4433 24.7495C1.58763 24.8998 1.80412 25 1.99656 25C2.189 25 2.4055 24.8998 2.54983 24.7495L13.7594 13.0762C13.9038 12.9259 14 12.7004 14 12.5C14 12.2996 13.9038 12.0741 13.7594 11.9238L2.54983 0.2505C2.4055 0.100201 2.189 -2.00303e-06 1.99656 -1.99462e-06Z" fill="#CC4110"/>
</svg>
