<svg width="7" height="12" viewBox="0 0 7 12" fill="none" xmlns="http://www.w3.org/2000/svg">
<path d="M1.07143 0.0022309C0.982142 0.0022309 0.881695 0.0468748 0.814731 0.113838L0.256695 0.671875C0.189731 0.738838 0.145089 0.839285 0.145089 0.928571C0.145089 1.01786 0.189731 1.1183 0.256695 1.18527L4.64286 5.57143L0.256696 9.95759C0.189732 10.0246 0.145089 10.125 0.145089 10.2143C0.145089 10.3147 0.189732 10.404 0.256696 10.471L0.814732 11.029C0.881696 11.096 0.982143 11.1406 1.07143 11.1406C1.16071 11.1406 1.26116 11.096 1.32812 11.029L6.52902 5.82812C6.59598 5.76116 6.64062 5.66071 6.64062 5.57143C6.64062 5.48214 6.59598 5.3817 6.52902 5.31473L1.32812 0.113838C1.26116 0.0468748 1.16071 0.0022309 1.07143 0.0022309Z" fill="#333333"/>
</svg>
