<svg width="172" height="151" viewBox="0 0 172 151" fill="none" xmlns="http://www.w3.org/2000/svg">
<g clip-path="url(#clip0)">
<path d="M21.8724 147.67C19.1249 144.752 17.1407 141.099 15.6498 137.403C15.3968 136.426 14.9792 135.464 14.7262 134.488L13.8025 131.573C13.5495 130.597 13.4609 129.605 13.3723 128.614C13.328 128.119 13.2837 127.623 13.2394 127.127L13.1065 125.641C12.7521 121.676 13.0556 117.652 13.7028 113.764C14.3499 109.877 15.326 105.959 16.6606 102.343C17.9804 98.5616 19.6586 95.0812 21.5013 91.5861C22.5049 89.8312 23.5232 88.2415 24.6913 86.4719L26.2937 83.9974L28.0753 81.6734C29.2581 80.069 30.6201 78.615 31.8029 77.0106C33.0005 75.5714 34.527 74.1028 35.7246 72.6636C38.4634 69.921 41.3667 67.1637 44.4641 64.7221C56.6888 54.9703 71.6758 48.3021 87.2555 46.41C95.135 45.5393 102.953 45.8396 110.711 47.311C118.468 48.7824 126 51.4396 132.798 55.1616C134.531 56.0058 136.129 57.1951 137.877 58.2045C138.744 58.6266 139.475 59.3938 140.342 59.8159C141.223 60.4032 141.94 61.0052 142.822 61.5925C145.854 63.9858 148.901 66.5444 151.498 69.6426C152.23 70.4098 152.783 71.0265 153.514 71.7937L155.38 74.1247C156.679 75.6738 157.649 77.2523 158.798 78.9813C160.932 82.4541 162.588 86.1361 163.421 89.8916C164.268 93.8123 164.129 97.8213 162.81 101.603C162.15 103.493 161.146 105.248 159.963 106.853C158.781 108.457 157.239 109.761 155.489 110.583C152.004 112.393 147.892 112.761 144.036 112.273C142.018 111.954 140.15 111.455 138.267 110.79L135.517 109.704L132.903 108.272C132.036 107.85 131.319 107.248 130.438 106.661C129.557 106.074 128.84 105.472 128.123 104.87C127.406 104.268 126.674 103.5 125.957 102.898L123.777 100.762C121.194 97.8289 119.075 94.5214 117.27 91.0192C113.824 84.0003 111.964 76.1736 111.749 68.1998L111.616 66.713L111.647 65.2115C111.723 64.2056 111.635 63.2144 111.711 62.2085L111.938 59.1908C112.014 58.1848 112.254 57.1642 112.345 56.3235C112.992 52.4357 113.983 48.6837 115.138 44.917C116.294 41.1503 117.793 37.5193 119.456 33.8737C121.12 30.2281 122.962 26.733 124.82 23.4031C128.535 16.7432 132.623 10.5496 136.861 4.17607C137.744 2.93147 135.802 1.60636 134.919 2.85096C130.352 9.25389 125.8 15.822 121.771 22.6765C117.742 29.5309 114.086 36.8515 111.461 44.5796C110.156 48.5262 109.016 52.4581 108.383 56.5111L108.381 58.343L108.185 59.8593C108.109 60.8652 107.869 61.8858 107.808 63.0569L107.759 66.2251C107.684 67.231 107.787 68.3874 107.875 69.3786C107.903 71.5409 108.245 73.5086 108.437 75.6562C108.793 77.7892 109.135 79.7569 109.656 81.8751C110.176 83.9933 110.847 85.9316 111.518 87.8699C111.935 88.8317 112.353 89.7935 112.77 90.7553C112.979 91.2362 113.188 91.7171 113.396 92.1981L114.187 93.6261C114.769 94.5732 115.187 95.535 115.769 96.4821L117.5 99.1582C118.082 100.105 118.814 100.873 119.396 101.82C119.769 102.286 119.977 102.767 120.336 103.068L121.441 104.301L122.546 105.535L123.098 106.151L123.651 106.768L126.16 108.875C126.518 109.176 127.041 109.462 127.564 109.749L129.148 110.773C130.044 111.525 131.239 111.918 132.285 112.49C134.377 113.636 136.604 114.436 138.83 115.236C141.042 115.871 143.404 116.326 145.736 116.45C150.235 116.714 154.96 115.792 158.895 113.443C162.814 110.927 165.45 107.028 166.875 102.571C168.315 98.2798 168.38 93.4448 167.309 88.878C166.773 86.5946 166.073 84.3259 165.059 82.2518C164.626 81.1248 164.044 80.1776 163.448 79.0653C162.866 78.1182 162.269 77.0059 161.687 76.0588C160.538 74.3298 159.224 72.6155 157.925 71.0664C157.194 70.2992 156.612 69.3521 155.88 68.5849L153.685 66.2833C148.011 60.2961 141.095 55.2526 133.968 51.56C130.307 49.5559 126.527 48.0621 122.596 46.7482C120.549 46.0986 118.666 45.4343 116.633 44.9499C114.601 44.4655 112.568 43.9811 110.55 43.6619C102.464 42.2198 94.1523 41.9636 85.9587 43.029C77.765 44.0944 69.854 46.4667 62.3605 49.8008C47.3882 56.6343 34.4002 67.1203 24.6383 80.3153C22.1083 83.5389 19.9366 87.0634 17.9442 90.7384C15.9518 94.4134 14.4676 98.2095 12.9981 102.171C11.6931 106.117 10.7318 110.2 10.2786 114.403C9.82541 118.607 9.53671 122.796 10.0851 127.076C10.1737 128.068 10.4267 129.044 10.5301 130.2C10.6187 131.192 10.8717 132.168 11.1396 133.31L11.8987 136.239L12.9868 139.139C13.2399 140.116 13.8219 141.063 14.4039 142.01C14.9859 142.957 15.4034 143.919 15.9706 144.701L17.7018 147.377C18.4335 148.144 19.0007 148.926 19.7324 149.693C21.1662 150.897 22.9921 149.069 21.8724 147.67Z" fill="#073C5C"/>
<path d="M102.822 29.5324C108.42 23.5369 114.465 18.8335 120.569 14.791C126.687 10.9137 133.03 7.6825 139.775 5.2479L137.415 2.96098C134.537 9.71252 132.661 16.5411 131.966 23.5971C131.255 30.4879 132.04 37.4117 134.425 43.6928C135.188 42.9585 136.131 42.3747 136.894 41.6404C125.94 37.7904 115.705 32.7104 105.426 27.1349C103.693 26.2907 101.641 29.3049 103.404 30.4795C112.949 37.1197 124.561 40.911 135.5 44.5958C137.204 45.1096 138.446 44.166 137.969 42.5434C135.957 36.7285 135.202 30.1351 135.778 23.5894C136.353 17.0437 138.08 10.395 140.658 4.00329C141.348 2.44298 139.585 1.26837 138.299 1.71638C131.733 4.30148 125.047 7.39689 118.614 11.4688C112.181 15.5407 106.195 20.9048 101.165 27.6823C99.9966 29.4519 101.774 30.7917 102.822 29.5324Z" fill="#073C5C"/>
<path d="M120.892 33.246C122.206 34.9603 123.355 36.6893 124.654 38.2384L125.687 36.8139C124.597 35.7457 123.342 34.6922 122.252 33.624L120.217 34.9715C124.101 37.6217 128.196 38.9209 132.919 39.8309C134.608 40.1795 135.104 38.3035 133.699 37.4299C128.082 33.9355 122.465 30.4411 116.833 26.7814L115.425 29.5716L130.53 37.2136C132.443 38.2083 133.701 35.598 131.953 34.5886C128.099 32.2688 125.351 29.3505 123.188 25.5473L121.421 28.0365C123.439 28.3557 125.457 28.675 127.489 29.1594C129.014 29.5227 130.167 27.5879 129.062 26.3544C126.15 23.4508 123.133 21.2227 119.487 19.3838C119.082 20.4191 118.513 21.4691 118.123 22.6696C120.993 23.2457 124.027 23.8071 126.897 24.3832C128.586 24.7318 129.859 22.2867 128.126 21.4425C126.407 20.7635 125.317 19.6953 124.662 17.9222C124.242 18.7923 123.643 19.5119 123.224 20.382C125.526 20.1762 127.993 19.9557 130.296 19.7499C131.282 19.6617 132.21 18.9127 131.942 17.771C131.392 15.3224 130.122 14.1037 127.881 13.1384L128.76 15.5576C130.228 13.4282 131.784 12.29 134.012 11.2582L132.461 8.73254C125.068 15.055 116.78 20.6249 108.222 26.885C107.13 27.6487 107.471 29.6164 108.637 29.6787C113.824 30.2142 118.143 32.1596 122.52 34.7657C123.924 35.6393 125.077 33.7045 124.481 32.5922C123.69 31.1642 122.735 29.7509 121.929 28.1576C121.139 26.7296 120.333 25.1364 119.542 23.7084L117.761 26.0324C122.499 27.1076 127.013 27.5367 131.841 27.7713C133.007 27.8336 133.861 26.2585 132.95 25.3408C129.695 22.3014 126.154 19.787 122.3 17.4672C122.06 18.4878 121.805 19.3432 121.4 20.3785C125.585 20.837 129.785 21.4607 133.985 22.0844C134.494 22.2055 135.272 21.6364 135.392 21.1261C135.617 19.9403 135.573 19.4447 135.141 18.3177C134.679 16.8603 130.749 15.5464 130.675 14.7204L133.606 14.1254C132.891 11.6915 133.821 9.11055 136.572 8.36505C138.187 7.88765 137.801 5.42433 136.171 5.73653C132.119 6.76483 129.633 10.484 130.675 14.7204C131.181 16.6734 133.768 15.9426 133.606 14.1254C133.414 11.9778 130.723 11.5522 129.182 12.8556C125.665 16.1673 132.973 18.1784 132.493 20.2196L133.899 19.2613C129.699 18.6376 125.663 17.9992 121.298 17.3902C119.789 17.1921 119.173 19.5784 120.398 20.3015C124.059 22.3056 127.42 24.6695 130.496 27.5585L131.605 25.128C127.106 24.8641 122.741 24.2551 118.347 23.3157C116.987 22.9377 115.968 24.5274 116.565 25.6397C118.161 28.6609 119.907 31.5023 121.668 34.5088C122.267 33.7892 122.866 33.0696 123.629 32.3353C119.222 29.3987 114.41 27.4975 109.044 26.8115L109.46 29.6052C118.167 23.1652 126.277 17.4448 134.177 11.2435C135.569 10.12 134.076 8.25514 132.625 8.71784C129.724 9.64324 127.719 11.3212 125.967 13.9756C125.039 14.7246 125.636 15.8369 126.502 16.259L128.204 18.6047L129.85 16.6258C127.548 16.8316 125.081 17.0521 122.779 17.2579C121.627 17.3608 120.579 18.6201 121.176 19.7324C122.37 21.957 123.818 23.3262 125.91 24.4714C126.315 23.4361 126.72 22.4008 127.139 21.5307C124.255 20.7894 121.385 20.2133 118.351 19.6519C116.497 19.318 115.253 22.0935 116.987 22.9377C120.274 24.4756 123.277 26.5385 125.994 29.1265C126.579 28.2417 126.998 27.3715 127.567 26.3215C125.535 25.8371 123.517 25.5179 121.663 25.184C120.318 24.9712 119.121 26.4104 119.897 27.6732C122.448 32.1078 125.868 35.1325 130.231 37.5734L131.654 34.9484L116.683 26.9613C114.935 25.9519 113.542 28.9073 115.275 29.7515C120.892 33.246 126.659 36.5605 132.411 39.7098C132.666 38.8544 132.921 37.999 133.191 37.3088C128.976 36.5199 125.21 35.1913 121.52 32.8568C120.295 32.1337 119.441 33.7087 119.859 34.6705C121.067 37.0603 122.815 38.0697 125.341 38.51C126.178 38.6017 126.927 37.7022 126.374 37.0855C125.075 35.5364 123.597 33.8368 122.298 32.2877C121.567 31.5205 120.16 32.4788 120.892 33.246Z" fill="#E4549E"/>
</g>
<defs>
<clipPath id="clip0">
<rect width="160" height="137" fill="white" transform="translate(0 14.2441) rotate(-5.10757)"/>
</clipPath>
</defs>
</svg>
