<svg width="97" height="113" viewBox="0 0 97 113" fill="none" xmlns="http://www.w3.org/2000/svg">
<path d="M95.4734 6.99695C93.2421 5.24772 90.5412 4.08157 87.8402 3.26526C87.1356 3.14865 86.431 2.91542 85.7264 2.7988L83.6126 2.33234C82.908 2.21573 82.2034 2.21573 81.4988 2.21573C81.1465 2.21573 80.7942 2.21573 80.4419 2.21573L79.385 2.21573C76.5666 2.21573 73.7482 2.68219 71.0472 3.38188C68.3462 4.08157 65.6453 5.01449 63.1792 6.18064C60.5956 7.34679 58.247 8.74617 55.8983 10.2622C54.724 11.0785 53.6671 11.8948 52.4927 12.8277L50.8487 14.1105L49.322 15.5098C48.2651 16.4428 47.3257 17.4923 46.2688 18.4252C45.3293 19.3581 44.3898 20.5243 43.4504 21.4572C41.6889 23.5563 39.9274 25.772 38.4007 28.1043C32.2942 37.3169 28.5363 48.2787 28.184 59.3571C28.0666 64.9546 28.7712 70.4355 30.2978 75.7998C31.8245 81.1641 34.1731 86.2952 37.2264 90.8432C37.931 92.0093 38.8705 93.0589 39.6925 94.225C40.0448 94.8081 40.632 95.2745 40.9843 95.8576C41.454 96.4407 41.9237 96.9072 42.3935 97.4902C44.2724 99.4727 46.2688 101.455 48.6174 103.088C49.2046 103.554 49.6743 103.904 50.2615 104.371L52.023 105.537C53.1973 106.353 54.3717 106.936 55.6634 107.636C58.247 108.919 60.9479 109.851 63.6489 110.201C66.4673 110.551 69.2857 110.201 71.8693 109.035C73.161 108.452 74.3353 107.636 75.3922 106.703C76.4491 105.77 77.2712 104.604 77.7409 103.321C78.7978 100.755 78.7978 97.8401 78.2107 95.1579C77.8583 93.7586 77.3886 92.4758 76.8015 91.193L75.862 89.3272L74.6876 87.578C74.3353 86.9949 73.8656 86.5284 73.3959 85.9453C72.9262 85.3623 72.4564 84.8958 71.9867 84.4294C71.5169 83.9629 70.9298 83.4964 70.46 83.03L68.816 81.6306C66.5847 79.998 64.1186 78.7152 61.5351 77.6657C56.368 75.6832 50.7312 74.8669 45.0944 75.2168L44.0375 75.2168L42.9806 75.3334C42.276 75.45 41.5714 75.45 40.8668 75.5666L38.753 75.9164C38.0484 76.0331 37.3438 76.2663 36.7567 76.3829C34.0557 77.0826 31.4722 78.0155 28.8886 79.0651C26.3051 80.1146 23.839 81.3974 21.3729 82.7967C18.9068 84.1961 16.5581 85.7121 14.3269 87.2281C9.86441 90.2601 5.75424 93.5253 1.52664 96.9072C0.704608 97.6069 -0.352293 96.3241 0.469741 95.6244C4.69734 92.0093 9.04238 88.3943 13.6223 85.129C18.2022 81.8638 23.1344 78.8318 28.4189 76.4995C31.1199 75.3334 33.8208 74.2838 36.6392 73.5842L37.931 73.4675L38.9879 73.2343C39.6925 73.1177 40.3971 72.8845 41.2191 72.7679L43.4504 72.5346C44.155 72.418 44.977 72.418 45.6816 72.418C47.2082 72.3014 48.6174 72.418 50.1441 72.418C51.6707 72.5346 53.0799 72.6512 54.6065 72.8845C56.1332 73.1177 57.5424 73.4675 58.9516 73.8174C59.6562 74.0506 60.3608 74.2838 61.0654 74.5171C61.4177 74.6337 61.77 74.7503 62.1223 74.8669L63.1792 75.3334C63.8838 75.6832 64.5884 75.9165 65.293 76.2663L67.2893 77.3158C67.9939 77.6657 68.5811 78.1321 69.2857 78.482C69.638 78.7152 69.9903 78.8318 70.2252 79.0651L71.1646 79.7648L72.1041 80.4644L72.5738 80.8143L73.0436 81.1641L74.6876 82.7967C74.9225 83.03 75.1574 83.3798 75.3922 83.7297L76.2143 84.7792C76.8015 85.3623 77.1538 86.1786 77.6235 86.8783C78.563 88.2776 79.2676 89.7937 79.9721 91.3096C80.5593 92.8256 81.029 94.4582 81.2639 96.0909C81.7337 99.2395 81.3814 102.621 79.9721 105.537C78.4455 108.452 75.862 110.551 72.8087 111.834C69.8729 113.117 66.4673 113.467 63.1792 113C61.5351 112.767 59.891 112.417 58.3644 111.834C57.5424 111.601 56.8378 111.251 56.0157 110.901C55.3111 110.551 54.4891 110.201 53.7845 109.851C52.4927 109.152 51.201 108.335 50.0266 107.519C49.4395 107.053 48.7349 106.703 48.1477 106.236L46.3862 104.837C41.8063 101.222 37.8136 96.6739 34.7603 91.8927C33.1162 89.4438 31.8245 86.8783 30.6501 84.1961C30.063 82.7967 29.4758 81.514 29.0061 80.1146C28.5363 78.7152 28.0666 77.3158 27.7143 75.9164C26.1877 70.3189 25.4831 64.4882 25.7179 58.6574C25.9528 52.8267 27.1271 47.1125 29.0061 41.6316C32.8814 30.6698 39.4576 20.8741 48.1477 13.1775C50.2615 11.1951 52.6102 9.44586 55.0763 7.81325C57.5424 6.18064 60.1259 4.89788 62.8269 3.61511C65.5278 2.44896 68.3462 1.51604 71.2821 0.932962C74.2179 0.349887 77.1538 -0.116574 80.207 4.13466e-05C80.9116 4.13158e-05 81.6162 0.116656 82.4382 0.116656C83.1428 0.116656 83.8475 0.233271 84.6695 0.349886L86.7833 0.699731L88.8971 1.28281C89.6017 1.39942 90.3063 1.74927 91.0109 2.09911C91.7155 2.44896 92.4201 2.68219 93.0073 3.03203L95.0036 4.08157C95.5908 4.54803 96.178 4.89787 96.7651 5.36433C97.7046 6.29725 96.5303 7.69664 95.4734 6.99695Z" fill="#073C5C"/>
<path d="M7.98546 83.7792C10.4516 79.2312 13.3874 74.6832 17.2627 70.3685C18.0847 69.5522 17.0278 68.386 15.8535 69.3189C11.391 73.2838 7.98546 77.8318 5.51936 82.613C3.05326 87.3943 1.29176 92.2921 -0.117442 97.0733C-0.352309 98.0062 0.587159 99.1724 1.64406 98.5893C5.98909 96.3736 10.569 94.741 15.1489 93.9247C19.7288 93.1084 24.4261 93.225 28.6537 94.2746C29.8281 94.5078 30.4152 93.5749 29.9455 92.4087L29.2409 91.709C24.661 90.4263 19.7288 90.3096 14.914 91.2426C10.9014 92.0016 7.0442 93.3008 3.27923 95.0776C4.501 91.1947 6.09031 87.449 7.98546 83.7792Z" fill="#003B5C"/>
</svg>
