<svg width="12" height="12" viewBox="0 0 12 12" fill="none" xmlns="http://www.w3.org/2000/svg">
<path d="M5.12714 0.745279L5.7052 0.179631C5.94997 -0.0598771 6.34576 -0.0598771 6.58792 0.179631L11.6499 5.13032C11.8946 5.36983 11.8946 5.75712 11.6499 5.99408L6.58792 10.9473C6.34315 11.1868 5.94736 11.1868 5.7052 10.9473L5.12714 10.3817C4.87977 10.1396 4.88498 9.74468 5.13756 9.50772L8.27523 6.58266H0.791679C0.445363 6.58266 0.166748 6.31003 0.166748 5.97115V5.1558C0.166748 4.81692 0.445363 4.54429 0.791679 4.54429H8.27523L5.13756 1.61923C4.88238 1.38227 4.87717 0.987336 5.12714 0.745279Z" fill="#FFFDFC"/>
</svg>
