<svg width="20" height="20" viewBox="0 0 20 20" fill="none" xmlns="http://www.w3.org/2000/svg">
<path d="M1.55908 11.4965L0.568115 10.5055C0.148519 10.0859 0.148519 9.40743 0.568115 8.9923L9.24125 0.314695C9.66085 -0.1049 10.3393 -0.1049 10.7545 0.314695L19.4321 8.9923C19.8517 9.41189 19.8517 10.0904 19.4321 10.5055L18.4411 11.4965C18.0171 11.9205 17.3252 11.9116 16.91 11.4786L11.7856 6.09976L11.7856 18.9287C11.7856 19.5224 11.308 20 10.7143 20L9.28589 20C8.69221 20 8.21458 19.5224 8.21458 18.9287L8.21458 6.09976L3.09015 11.4786C2.67502 11.9161 1.98314 11.925 1.55908 11.4965Z" fill="#DC008B"/>
</svg>
