<svg width="12" height="8" viewBox="0 0 12 8" fill="none" xmlns="http://www.w3.org/2000/svg">
<path d="M11.9978 1.72353C11.9978 1.63424 11.9531 1.5338 11.8862 1.46683L11.3281 0.908795C11.2612 0.841831 11.1607 0.797189 11.0714 0.797189C10.9821 0.797189 10.8817 0.841831 10.8147 0.908795L6.42857 5.29496L2.04241 0.908795C1.97545 0.841831 1.875 0.797189 1.78571 0.797189C1.68527 0.797189 1.59598 0.841831 1.52902 0.908795L0.970982 1.46683C0.904018 1.5338 0.859375 1.63424 0.859375 1.72353C0.859375 1.81281 0.904018 1.91326 0.970982 1.98022L6.17188 7.18112C6.23884 7.24808 6.33929 7.29272 6.42857 7.29272C6.51786 7.29272 6.6183 7.24808 6.68527 7.18112L11.8862 1.98022C11.9531 1.91326 11.9978 1.81281 11.9978 1.72353Z" fill="#333333"/>
</svg>
