<svg width="59" height="58" viewBox="0 0 59 58" fill="none" xmlns="http://www.w3.org/2000/svg">
<g style="mix-blend-mode:multiply" opacity="0.25">
<path d="M4.50476 21.9094C4.57996 21.2127 4.65516 20.4959 4.82562 19.8092C4.90584 19.4734 5.01112 19.1476 5.14148 18.8268C5.39717 18.1852 5.65286 17.5236 5.99378 16.9121C6.15923 16.6114 6.34975 16.3257 6.56032 16.05C6.9965 15.4786 7.41764 14.8971 7.92902 14.3859C8.18472 14.1303 8.45043 13.8947 8.73621 13.6691C9.29773 13.228 9.85925 12.7719 10.4609 12.386C11.3984 11.7845 12.4212 11.3635 13.449 10.9374C14.7976 10.3811 16.2164 10.0152 17.6553 9.76454C19.3098 9.47884 20.9894 9.27333 22.6689 9.22822C23.9724 9.19815 25.276 9.2583 26.5695 9.40866C28.244 9.60415 29.9035 9.85476 31.5379 10.2708C32.8164 10.5966 34.0698 11.0076 35.2931 11.4938C36.8473 12.1153 38.3814 12.787 39.8454 13.599C40.9885 14.2355 42.0915 14.9423 43.1443 15.7142C44.4829 16.7016 45.7915 17.7391 46.9947 18.892C47.9423 19.7992 48.8297 20.7716 49.6419 21.8041C50.6747 23.1123 51.6624 24.4406 52.4996 25.8841C53.3971 27.4279 54.124 29.077 54.7507 30.7461C55.4727 32.7159 55.8838 34.7609 56.0543 36.8511C56.1194 37.6781 56.1194 38.5152 56.0242 39.3422C55.9039 40.4299 55.7635 41.5226 55.4426 42.5751C55.3373 42.926 55.212 43.2668 55.0716 43.6077C54.7959 44.2793 54.5251 44.956 54.1792 45.5976C54.0137 45.9083 53.8282 46.2091 53.6277 46.4948C53.2266 47.0762 52.7904 47.6376 52.3292 48.1739C51.6373 48.9709 50.78 49.6275 49.9177 50.2289C49.4063 50.5547 48.8598 50.7302 48.2682 50.7552C47.9373 50.8304 47.6114 50.8555 47.2805 50.8304C47.2755 50.8354 47.2705 50.8405 47.2655 50.8455C46.9346 51.2565 46.5586 51.6324 46.1525 51.9682C45.4556 52.5446 44.7286 53.1261 43.9214 53.5471C43.034 54.0132 42.0764 54.4192 41.0988 54.6699C40.0961 54.9255 39.0482 55.0608 38.0154 55.1009C36.9726 55.136 35.9248 54.9856 34.902 54.8152C34.2503 54.7049 33.6135 54.5295 32.9969 54.2939C32.0593 53.933 31.1118 53.5421 30.2544 53.0008C29.4172 52.4745 28.625 51.8579 27.893 51.1963C27.4218 50.7703 26.9856 50.3041 26.5945 49.8079C25.9829 49.036 25.3712 48.2641 24.8749 47.412C24.3735 46.5549 23.9975 45.6377 23.6215 44.7204C23.3808 44.134 23.1803 43.5325 23.0249 42.921C22.4383 40.6254 22.323 38.2395 21.7063 35.9539C21.6161 35.6231 21.5158 35.2973 21.4055 34.9765C21.2802 34.7208 21.1398 34.4752 20.9844 34.2347C20.8791 34.1244 20.7738 34.0141 20.6585 33.9089C20.488 33.7986 20.3125 33.6983 20.127 33.6081C19.37 33.3475 18.5829 33.1871 17.7957 33.0668C16.427 32.9014 15.0533 32.7711 13.6896 32.5505C13.098 32.4553 12.5114 32.34 11.9399 32.1696C11.6742 32.0894 11.4084 31.9992 11.1477 31.8939C10.5511 31.6533 9.93445 31.4177 9.36792 31.102C9.12727 30.9666 8.89664 30.8163 8.68106 30.6559C8.16967 30.2699 7.62821 29.889 7.17699 29.4228C6.71072 28.9366 6.2946 28.3903 5.9236 27.8289C5.54256 27.2575 5.30693 26.5959 5.04622 25.9693C4.9259 25.6736 4.82562 25.3679 4.76044 25.0521C4.61004 24.3604 4.51478 23.6486 4.47969 22.9419C4.45963 22.586 4.46966 22.2452 4.50476 21.9094ZM27.8078 28.5858C27.8279 28.4956 27.8529 28.4053 27.873 28.3151C27.7326 28.26 27.5872 28.2099 27.4468 28.1597C27.5672 28.2951 27.6925 28.4404 27.8078 28.5858ZM38.6973 46.1189C38.5268 46.1439 38.3514 46.164 38.1759 46.189C38.0906 46.199 38.0054 46.2141 37.9202 46.2241C38.0505 46.2191 38.1809 46.2141 38.3112 46.2041C38.4466 46.179 38.5719 46.1489 38.6973 46.1189Z" fill="#EFD7E5"/>
</g>
<path d="M9.42814 27.2123C9.60362 27.2123 9.77909 27.1371 9.89942 26.9918L14.1108 21.8792C14.3264 21.6186 14.2863 21.2376 14.0256 21.0221C13.7649 20.8066 13.3838 20.8467 13.1683 21.1073L8.95687 26.2199C8.74129 26.4805 8.7814 26.8615 9.0421 27.077C9.1524 27.1622 9.28776 27.2123 9.42814 27.2123Z" fill="#073C5C"/>
<path d="M11.8196 18.4008C12.1354 18.4008 12.4062 18.1552 12.4262 17.8344C12.4513 17.4986 12.1956 17.2079 11.8597 17.1828L6.15425 16.7869C5.81834 16.7618 5.52755 17.0174 5.50248 17.3532C5.47741 17.6891 5.73311 17.9798 6.06902 18.0048L11.7745 18.4008C11.7895 18.4008 11.8045 18.4008 11.8196 18.4008Z" fill="#073C5C"/>
<path d="M13.9553 12.7618C14.1108 12.7618 14.2662 12.7017 14.3865 12.5814C14.6221 12.3458 14.6221 11.9598 14.3865 11.7193L10.7717 8.1154C10.5361 7.87983 10.15 7.87983 9.90938 8.1154C9.67375 8.35098 9.67375 8.73693 9.90938 8.97752L13.5242 12.5814C13.6445 12.7017 13.7999 12.7618 13.9553 12.7618Z" fill="#073C5C"/>
<path d="M18.1217 11.8747C18.4425 11.8747 18.7082 11.6241 18.7283 11.3033L19.0943 4.99278C19.1143 4.65695 18.8587 4.37125 18.5227 4.3512C18.1868 4.33115 17.9011 4.58678 17.881 4.9226L17.515 11.2331C17.495 11.5689 17.7506 11.8546 18.0866 11.8747C18.0966 11.8747 18.1116 11.8747 18.1217 11.8747Z" fill="#073C5C"/>
<path d="M22.5887 13.9097C22.7441 13.9097 22.8996 13.8496 23.0199 13.7343L27.5472 9.23826C27.7878 9.00268 27.7878 8.61673 27.5522 8.37614C27.3165 8.13555 26.9305 8.13555 26.6898 8.37113L22.1626 12.8672C21.9219 13.1028 21.9219 13.4887 22.1576 13.7293C22.2779 13.8496 22.4333 13.9097 22.5887 13.9097Z" fill="#073C5C"/>
<path d="M42.5678 44.0085C42.6229 44.0085 42.6831 43.9985 42.7383 43.9734L43.4602 43.6727C43.6658 43.5875 43.7711 43.3569 43.7109 43.1464L44.4379 42.5098C44.5983 42.3695 44.6334 42.1289 44.5181 41.9484C44.498 41.9184 44.478 41.8883 44.4479 41.8632L44.5933 41.758C44.7738 41.6277 44.8339 41.3821 44.7236 41.1866C44.6133 40.9911 44.3777 40.9109 44.1721 40.9961L43.019 41.4823L43.37 41.1565C43.5304 41.0061 43.5555 40.7605 43.4301 40.5851C43.3549 40.4748 43.2346 40.4097 43.1093 40.3996C43.1143 40.2994 43.0842 40.1992 43.019 40.1139C42.8837 39.9335 42.633 39.8884 42.4425 40.0037L40.9785 40.9009C41.3495 40.4598 41.7857 40.0789 42.277 39.7781C42.4675 39.6628 42.5427 39.4172 42.4425 39.2117C42.3723 39.0664 42.2269 38.9761 42.0715 38.9661L42.0765 38.9611C42.257 38.8258 42.3071 38.5752 42.1918 38.3847C42.0765 38.1942 41.8358 38.119 41.6303 38.2143L40.8632 38.5702C40.8632 38.495 40.8431 38.4198 40.798 38.3546C40.788 38.3396 40.778 38.3245 40.7679 38.3095L41.3445 37.8684C41.525 37.7281 41.5701 37.4775 41.4498 37.287C41.3294 37.0965 41.0788 37.0264 40.8782 37.1316L38.9079 38.1591L39.8204 36.3798C39.9056 36.2144 39.8755 36.0189 39.7502 35.8836C39.6399 35.7633 39.4744 35.7181 39.319 35.7582C39.3691 35.638 39.3641 35.4976 39.299 35.3773C39.1987 35.1919 38.9781 35.1066 38.7775 35.1718L37.3587 35.648L38.0305 35.0064C38.1859 34.861 38.211 34.6205 38.0907 34.445C37.9754 34.2796 37.7698 34.2094 37.5793 34.2796C37.5994 34.1894 37.5843 34.0892 37.5442 34.0039C37.4489 33.8135 37.2334 33.7182 37.0278 33.7784L35.6691 34.1744L35.98 33.8085C36.1153 33.6481 36.1203 33.4125 35.985 33.2471C35.975 33.232 35.9599 33.222 35.9499 33.207C36.0903 33.0566 36.1053 32.826 35.98 32.6556C35.8496 32.4752 35.614 32.4251 35.4185 32.5253C35.4084 32.5053 35.3934 32.4852 35.3783 32.4652C35.248 32.2847 35.0023 32.2346 34.8118 32.3399L34.5912 32.4652L36.2607 30.8562C36.4312 30.6908 36.4412 30.4151 36.2758 30.2397C36.1956 30.1545 36.0853 30.1094 35.975 30.0994C35.985 29.9791 35.9449 29.8487 35.8546 29.7585C35.6892 29.5881 35.4235 29.5781 35.248 29.7385L31.0867 33.4877C32.656 31.7584 34.3004 30.0994 36.005 28.5255C36.1805 28.3601 36.1956 28.0844 36.0301 27.909C35.8647 27.7335 35.5889 27.7185 35.4134 27.8839L35.0876 28.1847C35.1427 28.0343 35.1076 27.8589 34.9923 27.7335C34.8319 27.5631 34.5661 27.5531 34.3857 27.7035C34.3305 27.7486 34.2804 27.7937 34.2252 27.8438C34.2002 27.7686 34.16 27.6985 34.0949 27.6433C33.9144 27.4829 33.6436 27.498 33.4782 27.6784L33.4481 27.7135L33.7088 27.3727C33.8492 27.1922 33.8241 26.9366 33.6537 26.7812C33.6086 26.7411 33.5584 26.711 33.5033 26.691L33.8141 26.3652C33.9796 26.1948 33.9745 25.9191 33.8041 25.7537C33.6336 25.5833 33.3629 25.5833 33.1924 25.7487L32.2549 26.6559L33.5233 25.1723C33.6737 24.9918 33.6637 24.7262 33.4882 24.5658C33.3178 24.4054 33.052 24.4104 32.8816 24.5708L29.8534 27.523L31.5329 25.473C31.6833 25.2926 31.6633 25.0269 31.4878 24.8715C31.3174 24.7161 31.0516 24.7211 30.8862 24.8866L29.6528 26.1146L30.5453 25.0018C30.6907 24.8214 30.6706 24.5608 30.5001 24.4054C30.3297 24.25 30.074 24.25 29.9035 24.4054L26.9706 27.1321L28.9509 24.3903C29.0863 24.2049 29.0512 23.9442 28.8757 23.7989C28.8507 23.7788 28.8306 23.7638 28.8056 23.7488L28.8958 23.6385C29.0462 23.458 29.0262 23.1924 28.8557 23.037C28.6852 22.8766 28.4195 22.8816 28.2541 23.047L26.1935 25.052L27.6023 23.032C27.7327 22.8465 27.6976 22.5909 27.5221 22.4456C27.3967 22.3403 27.2263 22.3203 27.0809 22.3754L27.0909 22.3654C27.1511 22.2852 27.2163 22.205 27.2764 22.1248C27.4218 21.9343 27.3867 21.6586 27.1962 21.5133C27.0057 21.3679 26.7299 21.403 26.5845 21.5935L26.4041 21.829C25.8375 22.5558 25.2309 23.2525 24.5891 23.9142L26.1784 21.6486C26.3088 21.4631 26.2737 21.2025 26.0982 21.0572C25.9428 20.9318 25.7272 20.9268 25.5718 21.0371C25.5868 20.8968 25.5367 20.7564 25.4214 20.6612C25.2509 20.5108 24.9902 20.5208 24.8298 20.6762L24.6393 20.8617C24.6192 20.7865 24.5791 20.7163 24.5139 20.6612C24.3485 20.5058 24.0878 20.5058 23.9173 20.6612L23.4912 21.0521L23.7619 20.6662C23.8923 20.4807 23.8622 20.2251 23.6867 20.0798C23.6666 20.0647 23.6516 20.0497 23.6316 20.0397C23.7368 19.8592 23.6967 19.6236 23.5313 19.4833C23.3508 19.3329 23.0801 19.353 22.9246 19.5284L22.8194 19.6487C22.6639 19.5885 22.4834 19.6136 22.3581 19.7339C22.3381 19.6337 22.2829 19.5434 22.1977 19.4783C22.1225 19.4231 22.0322 19.3931 21.947 19.3881C21.9219 19.3429 21.8918 19.3028 21.8517 19.2728C21.6813 19.1274 21.4256 19.1374 21.2652 19.2928L21.21 19.348C21.0947 19.2928 20.9643 19.2928 20.849 19.348C20.829 19.2327 20.7688 19.1274 20.6685 19.0572C20.5933 19.0071 20.5081 18.977 20.4179 18.977C20.3928 18.9069 20.3477 18.8417 20.2825 18.7916C20.2123 18.7365 20.1321 18.7064 20.0519 18.6964C19.8864 18.6111 19.6809 18.6362 19.5455 18.7715L18.628 19.6738C18.4626 19.8392 18.4525 20.0998 18.608 20.2752C18.6832 20.3604 18.7834 20.4106 18.8887 20.4206L18.8536 20.4908C18.7584 20.6862 18.8185 20.9218 18.999 21.0471C19.0542 21.0872 19.1193 21.1073 19.1795 21.1173C19.1945 21.1825 19.2246 21.2426 19.2647 21.2977C19.2096 21.4581 19.2497 21.6436 19.3851 21.7639C19.4252 21.799 19.4653 21.824 19.5104 21.8441C19.3851 22.0346 19.4252 22.2902 19.6006 22.4305C19.6708 22.4857 19.746 22.5157 19.8263 22.5207C19.8413 22.631 19.8964 22.7363 19.9867 22.8115C20.092 22.8967 20.2223 22.9217 20.3427 22.8967C20.3176 23.042 20.3677 23.1924 20.483 23.2977C20.5632 23.3678 20.6585 23.4079 20.7588 23.4079L20.3928 23.9242C20.2624 24.1096 20.2925 24.3603 20.463 24.5056C20.5482 24.5808 20.6585 24.6159 20.7638 24.6159L20.7337 24.656C20.5883 24.8364 20.6134 25.0971 20.7838 25.2525C20.9543 25.4078 21.22 25.4028 21.3855 25.2424L21.9019 24.7412L21.5309 25.2525C21.3955 25.4379 21.4306 25.6985 21.6061 25.8439C21.7715 25.9842 22.0122 25.9792 22.1726 25.8389L21.7214 26.4805C21.596 26.6559 21.6211 26.9015 21.7765 27.0469C21.932 27.1972 22.1776 27.2073 22.3481 27.0769C22.3581 27.0719 22.3631 27.0669 22.3731 27.0569L22.2177 27.2624C22.0773 27.4478 22.1024 27.7085 22.2779 27.8589C22.4534 28.0092 22.7141 27.9992 22.8795 27.8388L23.9825 26.7211L22.8795 28.3049C22.7492 28.4904 22.7843 28.741 22.9547 28.8914C23.065 28.9866 23.2104 29.0167 23.3458 28.9816C23.2856 29.147 23.3257 29.3375 23.4661 29.4578C23.6416 29.6132 23.9073 29.6081 24.0727 29.4377L24.7396 28.751L23.6917 30.2046C23.5614 30.3851 23.5864 30.6407 23.7569 30.7911C23.9274 30.9414 24.178 30.9364 24.3435 30.786L26.1985 29.0618L24.148 31.6281C24.0026 31.8085 24.0226 32.0742 24.1981 32.2296C24.3736 32.385 24.6343 32.38 24.7997 32.2145L25.3612 31.6582L24.2432 33.0215C24.0978 33.202 24.1129 33.4626 24.2883 33.623C24.4588 33.7784 24.7245 33.7784 24.89 33.613L26.5444 31.999L25.4916 33.227C25.3412 33.4025 25.3512 33.6631 25.5167 33.8235L24.89 34.4851C24.7245 34.6555 24.7295 34.9262 24.895 35.0966C25.0604 35.267 25.3312 35.2721 25.5066 35.1066L29.8183 31.0567L26.5444 35.3472C26.4341 35.4926 26.4291 35.6881 26.5194 35.8384L25.8676 36.6003C25.7122 36.7808 25.7322 37.0514 25.9077 37.2118C26.0832 37.3722 26.3539 37.3622 26.5194 37.1918L26.9004 36.7958C26.9906 36.7858 27.0759 36.7457 27.1411 36.6855L27.487 36.3647C27.111 36.8259 26.745 37.292 26.379 37.7632C26.2386 37.9436 26.2587 38.1992 26.4291 38.3546C26.5946 38.51 26.8503 38.51 27.0207 38.3596L28.585 36.9512C28.6 37.0414 28.6401 37.1266 28.7053 37.1918C28.8707 37.3622 29.1415 37.3672 29.3169 37.2118L31.7987 34.9513C31.8939 34.9663 31.9942 34.9513 32.0794 34.9011L32.8465 34.4701C32.8565 34.5352 32.8866 34.5954 32.9267 34.6505C32.9768 34.7157 33.042 34.7658 33.1172 34.7909C33.1273 34.836 33.1523 34.8861 33.1774 34.9262C33.3027 35.1117 33.5534 35.1718 33.7489 35.0666L33.9796 34.9412C33.9645 35.0465 33.9846 35.1518 34.0447 35.247C34.15 35.4074 34.3506 35.4826 34.5361 35.4274L34.9171 35.3172L34.1751 35.8635C33.9946 35.9988 33.9445 36.2444 34.0598 36.4399C34.1751 36.6354 34.4157 36.7106 34.6213 36.6154L35.5588 36.1843L35.3533 36.3798C35.2029 36.5201 35.1728 36.7457 35.2781 36.9211C35.3834 37.0965 35.5989 37.1767 35.7945 37.1116L36.7821 36.7808L36.5866 36.9361C36.4162 37.0715 36.376 37.3171 36.4863 37.5025C36.5966 37.688 36.8323 37.7632 37.0328 37.683L38.5068 37.0614L37.4991 38.9812C37.4139 39.1516 37.4439 39.3571 37.5793 39.4924C37.7147 39.6277 37.9202 39.6578 38.0907 39.5726L38.216 39.5075C38.226 39.5476 38.2411 39.5826 38.2611 39.6177C38.2762 39.6428 38.2912 39.6628 38.3113 39.6829L38.0105 39.9185C37.835 40.0538 37.7899 40.3044 37.9102 40.4949C38.0255 40.6853 38.2662 40.7555 38.4717 40.6603L39.0082 40.4097C39.0132 40.4748 39.0282 40.535 39.0633 40.5951C39.1686 40.7856 39.3992 40.8708 39.5998 40.7956L40.0911 40.6102C39.7652 41.0462 39.4945 41.5274 39.2939 42.0387C39.2237 42.2141 39.2739 42.4146 39.4193 42.5349C39.5647 42.6552 39.7702 42.6702 39.9307 42.57L40.6827 42.1088C40.6877 42.1139 40.6877 42.1189 40.6927 42.1239C40.7429 42.194 40.813 42.2492 40.8883 42.2793L40.6275 42.5198C40.4721 42.6652 40.442 42.9008 40.5574 43.0762C40.6727 43.2516 40.8983 43.3218 41.0938 43.2416L41.52 43.0612C41.5149 43.1414 41.535 43.2216 41.5751 43.2968C41.6854 43.4922 41.921 43.5724 42.1266 43.4872C42.1065 43.5925 42.1266 43.7028 42.1868 43.798C42.277 43.9333 42.4174 44.0085 42.5678 44.0085Z" fill="#E4539E"/>
<path d="M34.1901 31.8687C34.2102 31.8687 34.2302 31.8687 34.2503 31.8637C35.624 31.6783 36.9877 31.4176 38.3363 31.0868C38.4216 31.172 38.5419 31.2171 38.6722 31.2121C38.8828 31.1971 39.0884 31.177 39.2939 31.147L41.2091 30.9465C41.2893 31.0267 41.3946 31.0818 41.5149 31.0818C42.8084 31.1119 44.112 30.8362 45.2801 30.2798C45.5007 30.1746 45.591 29.9139 45.4907 29.6984C45.3854 29.4779 45.1247 29.3876 44.9091 29.4879C44.3977 29.7335 43.8512 29.9139 43.2998 30.0342C43.2095 29.929 43.0691 29.8638 42.9187 29.8789L42.663 29.9039C42.8535 29.7836 43.0441 29.6533 43.2245 29.518C43.4 29.3876 43.4502 29.1471 43.3449 28.9566C43.2396 28.7661 43.009 28.6809 42.8034 28.7611C42.1717 29.0067 41.535 29.2323 40.8932 29.4428C41.0637 29.3526 41.2342 29.2573 41.3996 29.1621C41.6002 29.0518 41.6754 28.8062 41.5801 28.5957C41.4848 28.3902 41.2442 28.2899 41.0336 28.3651L40.4621 28.5756C40.4571 28.5305 40.442 28.4854 40.417 28.4453C40.3117 28.2348 40.056 28.1496 39.8454 28.2448L39.5045 28.4002C39.4995 28.3852 39.4945 28.3651 39.4894 28.3501C39.4042 28.1245 39.1535 28.0093 38.9279 28.0895L38.3514 28.305C38.597 28.0895 38.8327 27.8639 39.0633 27.6283C39.2187 27.4729 39.2287 27.2223 39.0934 27.0519C38.958 26.8815 38.7174 26.8364 38.5268 26.9466C38.4516 26.9918 38.3714 27.0369 38.2962 27.082C38.3413 26.9466 38.3213 26.7963 38.231 26.676C38.0907 26.4905 37.835 26.4504 37.6444 26.5757L37.1982 26.8664C37.098 26.8514 36.9927 26.8715 36.8974 26.9266L36.4663 27.1922C35.9047 27.5281 35.3182 27.8288 34.7165 28.0844L36.2206 26.7211C36.386 26.5707 36.4111 26.3201 36.2808 26.1397C36.2106 26.0444 36.1053 25.9793 35.995 25.9642C35.995 25.879 35.9699 25.7988 35.9198 25.7236C35.8045 25.5532 35.5839 25.4881 35.3934 25.5632L34.8719 25.7738C34.9672 25.6184 34.9522 25.4129 34.8318 25.2725C34.7015 25.1171 34.4759 25.072 34.2954 25.1623H34.2904C34.4308 24.9868 34.4107 24.7262 34.2453 24.5708C34.0698 24.4054 33.794 24.4154 33.6286 24.5908L33.4631 24.7613C33.4381 24.7011 33.398 24.651 33.3428 24.6059C33.1673 24.4605 32.9016 24.4756 32.7462 24.641L32.1947 25.2274L32.4704 24.8715C32.5908 24.7111 32.5908 24.4906 32.4704 24.3352C32.3451 24.1748 32.1345 24.1247 31.949 24.2049L29.9787 25.067L30.9313 23.9443C31.0867 23.7588 31.0666 23.4831 30.8811 23.3277C30.6956 23.1724 30.4199 23.1924 30.2645 23.3779L28.0886 25.9442C27.9582 26.0996 27.9482 26.3251 28.0735 26.4905C28.1939 26.6559 28.4145 26.7111 28.6 26.6309L30.7257 25.6986L30.2043 26.3752C30.089 26.5206 30.084 26.7261 30.1843 26.8815C30.2845 27.0369 30.475 27.112 30.6555 27.0719C30.7959 27.0369 30.9313 26.9968 31.0666 26.9517C31.187 27.1171 31.4026 27.1772 31.5931 27.097C31.6733 27.0619 31.7535 27.0268 31.8287 26.9918C31.8287 26.9968 31.8337 26.9968 31.8337 27.0018C31.8438 27.0168 31.8538 27.0318 31.8688 27.0419C31.7435 27.1622 31.6984 27.3526 31.7685 27.5231C31.8588 27.7436 32.1145 27.8539 32.3401 27.7586L33.0871 27.4529C32.9919 27.513 32.9016 27.5732 32.8064 27.6333L31.929 28.1195C31.7184 28.2348 31.6432 28.4955 31.7535 28.706C31.8638 28.9165 32.1245 29.0017 32.3401 28.8914C32.4805 28.8213 32.6209 28.7461 32.7612 28.6709L32.5457 28.8664C32.3952 29.0017 32.3601 29.2222 32.4554 29.3977C32.5507 29.5731 32.7562 29.6633 32.9517 29.6132C33.1222 29.5681 33.2927 29.518 33.4631 29.4678C33.4681 29.4829 33.4732 29.4979 33.4832 29.513C33.5333 29.6132 33.6186 29.6884 33.7188 29.7285C33.8041 29.8237 33.9294 29.8789 34.0597 29.8789C34.0096 29.919 33.9645 29.9641 33.9344 30.0192L33.1322 30.33C32.9267 30.4102 32.8114 30.6257 32.8615 30.8362C32.9116 31.0467 33.1122 31.1921 33.3278 31.172C33.4531 31.162 33.5835 31.147 33.7088 31.1319C33.6286 31.2472 33.6135 31.4026 33.6687 31.5429C33.7188 31.6733 33.8291 31.7585 33.9495 31.7986C34.0247 31.8437 34.1049 31.8687 34.1901 31.8687Z" fill="#E4539E"/>
<path d="M29.342 45.9783C29.4372 45.9783 29.5325 45.9482 29.6127 45.8831L30.0238 45.5623C30.1642 45.452 30.2194 45.2666 30.1793 45.1062L31.7986 42.7704C31.934 42.58 31.8889 42.3193 31.7084 42.174C31.6031 42.0938 31.4778 42.0687 31.3575 42.0888C31.3625 42.0737 31.3625 42.0637 31.3675 42.0487C31.4176 41.8532 31.3274 41.6527 31.1519 41.5575C31.1268 41.5474 31.1068 41.5324 31.0817 41.5274L31.6583 40.6352C31.7836 40.4447 31.7385 40.1891 31.558 40.0488C31.4276 39.9485 31.2522 39.9335 31.1068 39.9986C31.1669 39.9034 31.2271 39.8132 31.2873 39.718C31.6182 39.2518 31.939 38.7857 32.2499 38.3045C32.3802 38.104 32.3251 37.8383 32.1295 37.703C32.0343 37.6378 31.929 37.6178 31.8237 37.6328C31.8989 37.5376 31.9691 37.4374 32.0443 37.3421C32.1897 37.1517 32.1546 36.876 31.9641 36.7306C31.939 36.7106 31.919 36.6955 31.8939 36.6855C32.3251 36.0991 32.7462 35.5076 33.1573 34.9112C33.2927 34.7157 33.2426 34.445 33.052 34.3097C33.027 34.2896 33.0019 34.2796 32.9768 34.2646C32.9468 34.2245 32.9117 34.1844 32.8716 34.1543C32.6861 34.019 32.4253 34.049 32.2749 34.2245L30.6004 36.2244L31.3725 34.9212C31.4928 34.7157 31.4327 34.455 31.2321 34.3297C31.0316 34.2044 30.7709 34.2545 30.6355 34.45C30.435 34.7407 30.2344 35.0365 30.0389 35.3322C29.9988 35.2871 29.9486 35.247 29.8885 35.2219C29.6679 35.1217 29.4122 35.2169 29.3069 35.4374C28.8105 36.5001 28.239 37.5226 27.5973 38.5C27.8931 37.7632 28.2139 37.0414 28.5599 36.3346C28.6501 36.1542 28.6 35.9286 28.4446 35.8033C28.2891 35.673 28.0585 35.673 27.8981 35.7933L27.2313 36.3096C27.0408 36.4549 27.0057 36.7306 27.1511 36.9261C27.1861 36.9712 27.2212 37.0063 27.2664 37.0314C26.7048 38.2844 26.2286 39.5776 25.8425 40.8958C25.7823 41.0963 25.8726 41.3069 26.0531 41.4071C26.2336 41.5073 26.4642 41.4622 26.5945 41.3018C26.6998 41.1765 26.8051 41.0512 26.9054 40.9259C26.9254 41.0562 27.0107 41.1815 27.136 41.2467C27.3416 41.352 27.5973 41.2818 27.7176 41.0813L27.8128 40.9259L27.8279 40.9109C27.8329 40.9159 27.8429 40.9259 27.8479 40.9309C27.8881 40.966 27.9332 40.9911 27.9783 41.0111C27.8329 41.2517 27.6925 41.4873 27.5521 41.7279C27.4368 41.9284 27.492 42.184 27.6825 42.3143C27.7326 42.3494 27.7828 42.3695 27.8379 42.3795C27.7376 42.575 27.6424 42.7704 27.5471 42.9659C27.4519 43.1614 27.512 43.397 27.6925 43.5173C27.873 43.6426 28.1137 43.6125 28.2641 43.4521C28.3343 43.3769 28.4045 43.2967 28.4746 43.2216C28.5047 43.3017 28.5599 43.3719 28.6351 43.422C28.6752 43.4471 28.7203 43.4672 28.7654 43.4822L28.3643 44.0937C28.239 44.2842 28.2841 44.5398 28.4596 44.6801C28.6401 44.8205 28.8958 44.8004 29.0512 44.635L29.4723 44.1839C29.4272 44.3092 29.4372 44.4446 29.5024 44.5598L28.986 45.3067C28.8607 45.4871 28.8858 45.7277 29.0462 45.8731C29.1214 45.9382 29.2317 45.9783 29.342 45.9783Z" fill="#E4539E"/>
<path d="M30.3196 48.7853C30.3447 48.7853 30.3748 48.7853 30.3998 48.7802C30.6505 48.7452 30.8561 48.5597 30.9162 48.3091C31.4126 46.1037 32.0142 43.808 32.5958 41.5876C33.0771 39.7581 33.5684 37.8785 34.0046 36.0339C35.1326 37.4324 36.2858 38.9561 37.4088 40.4347C38.8026 42.2743 40.2415 44.1739 41.6302 45.833C41.8408 46.0836 42.2168 46.1237 42.4775 45.9182L45.7765 43.2918C46.0372 43.0812 46.0823 42.7003 45.8717 42.4347C45.6611 42.174 45.2801 42.1289 45.0144 42.3394L42.1817 44.6C40.9283 43.0762 39.6298 41.362 38.3764 39.703C36.9827 37.8634 35.5438 35.9638 34.155 34.3047C34.0046 34.1293 33.769 34.0491 33.5433 34.1042C33.3177 34.1593 33.1423 34.3348 33.0921 34.5603C32.5958 36.7657 31.9942 39.0614 31.4126 41.2818C30.9664 42.976 30.5152 44.7153 30.099 46.4345C25.2058 36.886 21.6411 27.7837 18.9689 18.0097C27.6875 22.0696 36.9676 25.9291 47.2354 29.7635C45.9469 30.0342 44.6534 30.3049 43.39 30.5705C41.4397 30.9815 39.4293 31.4076 37.474 31.8086C37.2584 31.8537 37.0829 32.0091 37.0177 32.2146C36.9476 32.4251 36.9977 32.6506 37.1481 32.811L45.5408 42.0387C45.9168 42.4497 46.0873 42.6702 46.2628 42.8958C46.4483 43.1314 46.6388 43.377 47.0449 43.8281C47.2705 44.0787 47.6565 44.0937 47.9072 43.8682C48.1579 43.6426 48.1729 43.2567 47.9473 43.0061C47.5713 42.5951 47.4009 42.3745 47.2254 42.149C47.0399 41.9134 46.8494 41.6678 46.4433 41.2167L38.7625 32.786C40.3869 32.4501 42.0313 32.1043 43.6357 31.7635C45.5859 31.3524 47.5964 30.9264 49.5517 30.5254C49.8174 30.4703 50.0179 30.2447 50.038 29.9741C50.058 29.7034 49.8976 29.4528 49.6419 29.3575C38.1408 25.1171 27.888 20.8617 18.3021 16.3506C18.0865 16.2504 17.8358 16.2804 17.6554 16.4358C17.4749 16.5862 17.3946 16.8318 17.4548 17.0573C20.3176 27.904 24.2332 37.8785 29.7782 48.4595C29.8834 48.6599 30.094 48.7853 30.3196 48.7853Z" fill="#073C5C"/>
</svg>
