<svg width="17" height="14" viewBox="0 0 17 14" fill="none" xmlns="http://www.w3.org/2000/svg">
<path d="M16.3509 4.8776C16.4779 4.77669 16.6667 4.87109 16.6667 5.0306V11.6875C16.6667 12.5501 15.9668 13.25 15.1042 13.25H1.5625C0.69987 13.25 0 12.5501 0 11.6875V5.03385C0 4.87109 0.185547 4.77995 0.315755 4.88086C1.04492 5.44727 2.01172 6.16667 5.33203 8.57878C6.01888 9.08008 7.17773 10.1348 8.33333 10.1283C9.49544 10.138 10.6771 9.06055 11.3379 8.57878C14.6582 6.16667 15.6217 5.44401 16.3509 4.8776ZM8.33333 9.08333C9.08854 9.09635 10.1758 8.13281 10.7227 7.73568C15.0423 4.60091 15.3711 4.32747 16.3672 3.54622C16.556 3.39974 16.6667 3.17188 16.6667 2.93099V2.3125C16.6667 1.44987 15.9668 0.75 15.1042 0.75H1.5625C0.69987 0.75 0 1.44987 0 2.3125V2.93099C0 3.17188 0.110677 3.39648 0.299479 3.54622C1.29557 4.32422 1.62435 4.60091 5.94401 7.73568C6.49089 8.13281 7.57813 9.09635 8.33333 9.08333Z" fill="#1172A8"/>
</svg>
