<svg width="18" height="14" viewBox="0 0 18 14" fill="none" xmlns="http://www.w3.org/2000/svg">
<path d="M17.0176 4.8776C17.1446 4.77669 17.3334 4.87109 17.3334 5.0306V11.6875C17.3334 12.5501 16.6335 13.25 15.7709 13.25H2.22919C1.36656 13.25 0.666687 12.5501 0.666687 11.6875V5.03385C0.666687 4.87109 0.852234 4.77995 0.982442 4.88086C1.71161 5.44727 2.67841 6.16667 5.99872 8.57878C6.68557 9.08008 7.84442 10.1348 9.00002 10.1283C10.1621 10.138 11.3438 9.06055 12.0046 8.57878C15.3249 6.16667 16.2884 5.44401 17.0176 4.8776ZM9.00002 9.08333C9.75523 9.09635 10.8425 8.13281 11.3893 7.73568C15.709 4.60091 16.0378 4.32747 17.0339 3.54622C17.2227 3.39974 17.3334 3.17188 17.3334 2.93099V2.3125C17.3334 1.44987 16.6335 0.75 15.7709 0.75H2.22919C1.36656 0.75 0.666687 1.44987 0.666687 2.3125V2.93099C0.666687 3.17188 0.777364 3.39648 0.966166 3.54622C1.96226 4.32422 2.29104 4.60091 6.6107 7.73568C7.15757 8.13281 8.24481 9.09635 9.00002 9.08333Z" fill="#F3F3F3"/>
</svg>
