<svg width="20" height="19" viewBox="0 0 20 19" fill="none" xmlns="http://www.w3.org/2000/svg">
<path d="M10.0022 4.62864C7.16453 4.62864 4.87563 6.80358 4.87563 9.5C4.87563 12.1964 7.16453 14.3714 10.0022 14.3714C12.8399 14.3714 15.1288 12.1964 15.1288 9.5C15.1288 6.80358 12.8399 4.62864 10.0022 4.62864ZM10.0022 12.667C8.16843 12.667 6.66927 11.2467 6.66927 9.5C6.66927 7.75326 8.16397 6.33298 10.0022 6.33298C11.8405 6.33298 13.3352 7.75326 13.3352 9.5C13.3352 11.2467 11.836 12.667 10.0022 12.667ZM16.5343 4.42938C16.5343 5.06108 15.9989 5.5656 15.3385 5.5656C14.6737 5.5656 14.1428 5.05684 14.1428 4.42938C14.1428 3.80191 14.6782 3.29315 15.3385 3.29315C15.9989 3.29315 16.5343 3.80191 16.5343 4.42938ZM19.9297 5.58256C19.8539 4.06053 19.488 2.71232 18.3146 1.60153C17.1456 0.49074 15.7267 0.143088 14.1249 0.0667745C12.4741 -0.0222582 7.52593 -0.0222582 5.87507 0.0667745C4.27775 0.138849 2.8589 0.4865 1.68544 1.59729C0.511991 2.70808 0.150586 4.05629 0.0702733 5.57832C-0.0234244 7.14699 -0.0234244 11.8488 0.0702733 13.4174C0.146124 14.9395 0.511991 16.2877 1.68544 17.3985C2.8589 18.5093 4.27328 18.8569 5.87507 18.9332C7.52593 19.0223 12.4741 19.0223 14.1249 18.9332C15.7267 18.8612 17.1456 18.5135 18.3146 17.3985C19.4835 16.2877 19.8494 14.9395 19.9297 13.4174C20.0234 11.8488 20.0234 7.15123 19.9297 5.58256ZM17.797 15.1006C17.449 15.9316 16.7752 16.5717 15.8963 16.9067C14.58 17.4027 11.4568 17.2882 10.0022 17.2882C8.54769 17.2882 5.41997 17.3985 4.1082 16.9067C3.23369 16.576 2.55996 15.9358 2.20747 15.1006C1.68544 13.8499 1.80591 10.8821 1.80591 9.5C1.80591 8.11787 1.68991 5.14588 2.20747 3.89942C2.55549 3.06845 3.22922 2.42826 4.1082 2.09333C5.42443 1.59729 8.54769 1.71176 10.0022 1.71176C11.4568 1.71176 14.5845 1.60153 15.8963 2.09333C16.7708 2.42402 17.4445 3.06421 17.797 3.89942C18.319 5.15012 18.1985 8.11787 18.1985 9.5C18.1985 10.8821 18.319 13.8541 17.797 15.1006Z" fill="white"/>
</svg>
