<svg width="20" height="19" viewBox="0 0 20 19" fill="none" xmlns="http://www.w3.org/2000/svg">
<path d="M4.47679 19H0.330357V6.31467H4.47679V19ZM2.40134 4.58428C1.07545 4.58428 0 3.54095 0 2.28132C9.49017e-09 1.67628 0.252998 1.09602 0.703336 0.668184C1.15367 0.240353 1.76446 0 2.40134 0C3.03821 0 3.649 0.240353 4.09934 0.668184C4.54968 1.09602 4.80268 1.67628 4.80268 2.28132C4.80268 3.54095 3.72679 4.58428 2.40134 4.58428ZM19.9955 19H15.858V12.8249C15.858 11.3532 15.8268 9.46586 13.7022 9.46586C11.5464 9.46586 11.2161 11.0648 11.2161 12.7188V19H7.07411V6.31467H11.0509V8.04507H11.1089C11.6625 7.04839 13.0147 5.99658 15.0321 5.99658C19.2286 5.99658 20 8.62187 20 12.0318V19H19.9955Z" fill="white"/>
</svg>
