<svg width="127" height="78" viewBox="0 0 127 78" fill="none" xmlns="http://www.w3.org/2000/svg">
<path d="M62.0027 7.36374C59.322 5.54849 57.0846 4.20817 55.2799 3.35331C53.4753 2.49846 52.2827 2.11853 51.7128 2.06576C51.0901 2.01299 50.9212 2.15019 50.8685 2.28738C50.8157 2.40348 50.8157 2.57234 50.9951 2.85729C51.1218 3.06836 51.6072 3.68048 52.6415 4.61976C53.6652 5.55905 55.6282 7.57482 58.5199 10.6776C56.2509 12.9467 54.6045 14.6986 53.6019 15.965C52.5887 17.2209 52.0188 17.9914 51.8816 18.2658C51.7444 18.5507 51.7655 18.8146 51.9239 19.0573C52.0927 19.3106 52.2827 19.4583 52.4832 19.5217C52.6837 19.585 53.0425 19.5111 53.5491 19.3106C54.0663 19.0995 54.9528 18.614 56.2298 17.8331C57.5068 17.0626 58.6149 16.4189 59.5753 15.9228C60.5252 15.4268 61.0634 15.1841 61.1689 15.1841C61.2745 15.1841 61.38 15.2368 61.4961 15.3318C61.6016 15.4374 61.8549 15.8173 62.256 16.4927C62.657 17.1682 63.0158 17.928 63.343 18.7935C63.6702 19.6589 64.0712 20.7565 64.5461 22.0968C65.0316 23.4371 65.3588 24.2814 65.5593 24.6297C65.7493 24.978 66.0026 25.2418 66.3086 25.4107C66.6147 25.5795 66.868 25.5584 67.0579 25.3473C67.2479 25.1363 67.3745 24.8408 67.4484 24.4503C67.5117 24.0703 67.5117 23.0677 67.4379 21.453C67.3534 19.8383 67.1107 17.432 66.678 14.2448C70.1396 13.9809 72.6409 13.8754 74.1817 13.9176C75.7226 13.9704 76.6196 13.9598 76.8835 13.8965C77.1368 13.8332 77.3373 13.6643 77.4745 13.3688C77.6117 13.0839 77.5906 12.8095 77.4112 12.5456C77.2317 12.2818 76.8201 12.0602 76.1869 11.8702C75.5431 11.6802 72.5037 10.952 67.0368 9.66446C68.3666 6.90993 69.3903 4.83084 70.108 3.42719C70.8256 2.02354 71.195 1.22146 71.2267 1.03149C71.2478 0.841521 71.2478 0.598785 71.0895 0.366602C70.9311 0.13442 70.699 0.0394358 70.509 0.00777452C70.3085 -0.0238867 70.0657 0.0394358 69.7702 0.229403C69.4747 0.408817 68.9787 0.788752 68.2927 1.36921C67.5645 1.96022 65.4749 3.95488 62.0027 7.36374Z" fill="white"/>
<path d="M26.9018 69.0293C26.6379 68.7655 26.2896 68.5439 25.8886 68.3856C25.4876 68.2273 25.0126 68.1428 24.4744 68.1428H21.1816V77.8417H22.6908V73.9579C22.8808 74.0002 23.0708 74.0424 23.2818 74.074C23.5562 74.1162 23.8623 74.1374 24.1895 74.1374C24.7488 74.1374 25.2554 74.0529 25.6881 73.9052C26.1208 73.7469 26.5007 73.5252 26.7962 73.2508C27.0917 72.9764 27.3134 72.6493 27.4717 72.2905C27.6194 71.9316 27.6933 71.5411 27.6933 71.1295C27.6933 70.7391 27.63 70.3591 27.4928 70.0003C27.3661 69.6204 27.1656 69.3037 26.9018 69.0293ZM26.0997 71.1718C26.0997 71.4145 26.0575 71.6678 25.9836 71.9105C25.9097 72.1532 25.7725 72.3854 25.6037 72.5754C25.4242 72.7759 25.2026 72.9342 24.9388 73.0609C24.6749 73.1875 24.3478 73.2508 23.9678 73.2508C23.6934 73.2508 23.4401 73.2403 23.2185 73.2192C23.0391 73.1981 22.8702 73.1664 22.7119 73.1136V69.0082H23.9784C24.3267 69.0082 24.6433 69.0716 24.9177 69.1982C25.1815 69.3248 25.4137 69.4937 25.5825 69.6942C25.762 69.8947 25.8886 70.1375 25.9836 70.3908C26.0469 70.6546 26.0997 70.9185 26.0997 71.1718Z" fill="white"/>
<path d="M37.2341 77.0816C37.1919 77.0816 37.1602 77.0922 37.118 77.0922C36.9491 77.0922 36.8014 77.0711 36.6747 77.0183C36.5481 76.9655 36.4214 76.9022 36.3159 76.8072C36.1998 76.7122 36.0837 76.5961 35.9782 76.4484C35.8621 76.3006 35.746 76.1318 35.6193 75.9524C35.25 75.4036 34.9545 74.9709 34.7539 74.6437C34.5429 74.306 34.3846 74.0632 34.2579 73.8838C34.1313 73.6939 34.0257 73.5672 33.9519 73.4722C33.9096 73.43 33.8674 73.3878 33.8147 73.3456C34.1102 73.2928 34.3846 73.2084 34.6167 73.0923C34.9439 72.9234 35.2077 72.7018 35.4188 72.4485C35.6193 72.1952 35.7776 71.9103 35.8726 71.6148C35.9676 71.3193 36.0098 71.0238 36.0098 70.7494C36.0098 70.4961 35.9571 70.2111 35.8621 69.9156C35.7671 69.6096 35.5877 69.3246 35.3449 69.0608C35.1022 68.7969 34.775 68.5858 34.3634 68.4064C33.9519 68.2376 33.4347 68.1426 32.812 68.1426H29.6143V77.8415H31.1234V73.6833H31.5773C31.82 73.6833 32.01 73.7044 32.1683 73.7466C32.316 73.7888 32.4532 73.8522 32.5693 73.9471C32.696 74.0421 32.812 74.1793 32.9176 74.3376C33.0337 74.5065 33.1709 74.7176 33.3397 74.9709L34.4057 76.5434C34.5429 76.7544 34.6695 76.9444 34.8067 77.1133C34.9439 77.2927 35.0917 77.451 35.25 77.5776C35.4083 77.7043 35.5982 77.8098 35.7988 77.8837C36.0098 77.9576 36.2526 77.9998 36.5375 77.9998C36.738 77.9998 36.9069 77.9892 37.0441 77.9681C37.1919 77.947 37.3291 77.8942 37.4663 77.8204L37.5401 77.7782V77.0288L37.3713 77.0605C37.3079 77.0711 37.2657 77.0816 37.2341 77.0816ZM31.1023 69.0185H32.3266C32.6537 69.0185 32.9492 69.0608 33.2025 69.1557C33.4558 69.2507 33.6775 69.3774 33.8674 69.5357C34.0468 69.694 34.184 69.884 34.279 70.1056C34.374 70.3272 34.4268 70.5805 34.4268 70.8443C34.4268 71.066 34.3846 71.2982 34.2896 71.5303C34.2051 71.7625 34.0679 71.9736 33.8885 72.153C33.7091 72.343 33.498 72.4907 33.2342 72.6068C32.9809 72.7229 32.6748 72.7862 32.3371 72.7862H31.0918V69.0185H31.1023Z" fill="white"/>
<path d="M47.3549 69.7152C46.9116 69.2192 46.3523 68.8076 45.6768 68.4804C45.0014 68.1532 44.1993 67.9844 43.2811 67.9844C42.3735 67.9844 41.582 68.1427 40.9276 68.4699C40.2733 68.7865 39.7351 69.1981 39.3129 69.6941C38.8908 70.1901 38.5742 70.7284 38.3736 71.3194C38.1731 71.8998 38.0781 72.4697 38.0781 72.9869C38.0781 73.504 38.1731 74.0633 38.3736 74.6438C38.5742 75.2243 38.8802 75.773 39.3024 76.2691C39.7245 76.7651 40.2733 77.1873 40.9171 77.5039C41.5714 77.831 42.3629 77.9999 43.2706 77.9999C43.8827 77.9999 44.442 77.926 44.9486 77.7677C45.4446 77.62 45.8984 77.4089 46.2995 77.1556C46.7005 76.9023 47.0488 76.5962 47.3443 76.2585C47.6398 75.9208 47.8825 75.562 48.0725 75.1926C48.2625 74.8232 48.3997 74.4433 48.5052 74.0633C48.6002 73.6834 48.653 73.3246 48.653 72.9763C48.653 72.4592 48.5474 71.8998 48.3364 71.3194C48.1253 70.76 47.7876 70.2112 47.3549 69.7152ZM47.0488 72.9974C47.0488 73.599 46.9433 74.1689 46.7533 74.6755C46.5528 75.182 46.2784 75.6253 45.9407 75.9841C45.6029 76.343 45.2019 76.6279 44.7481 76.8284C44.2943 77.0289 43.8088 77.1345 43.3022 77.1345C42.7851 77.1345 42.3102 77.0289 41.8669 76.8284C41.4342 76.6279 41.0437 76.343 40.7271 75.9841C40.3999 75.6253 40.1467 75.182 39.9567 74.6755C39.7667 74.1689 39.6717 73.6095 39.6717 72.9974C39.6717 72.3853 39.7667 71.8259 39.9567 71.3194C40.1467 70.8128 40.3999 70.3801 40.7271 70.0107C41.0437 69.6519 41.4342 69.3669 41.8669 69.1664C42.2996 68.9659 42.7851 68.8603 43.3022 68.8603C43.8088 68.8603 44.2943 68.9659 44.7481 69.1664C45.2019 69.3669 45.6029 69.6519 45.9407 70.0107C46.2784 70.3695 46.5528 70.8128 46.7533 71.3194C46.9433 71.8259 47.0488 72.3853 47.0488 72.9974Z" fill="white"/>
<path d="M56.6108 69.0291C56.3469 68.7653 55.9986 68.5436 55.5976 68.3853C55.1966 68.227 54.7216 68.1426 54.1834 68.1426H50.8906V77.8415H52.3998V73.9577C52.5898 73.9999 52.7797 74.0421 52.9908 74.0738C53.2652 74.116 53.5713 74.1371 53.8984 74.1371C54.4578 74.1371 54.9644 74.0527 55.3971 73.9049C55.8298 73.7466 56.2097 73.525 56.5052 73.2506C56.8007 72.9762 57.0224 72.649 57.1807 72.2902C57.3284 71.9314 57.4023 71.5409 57.4023 71.1293C57.4023 70.7388 57.339 70.3589 57.2018 70C57.0857 69.6201 56.8852 69.3035 56.6108 69.0291ZM55.8087 71.1715C55.8087 71.4142 55.7665 71.6675 55.6926 71.9103C55.6187 72.153 55.4815 72.3852 55.3126 72.5752C55.1332 72.7757 54.9116 72.934 54.6478 73.0606C54.3839 73.1873 54.0567 73.2506 53.6768 73.2506C53.4024 73.2506 53.1491 73.24 52.9275 73.2189C52.7481 73.1978 52.5792 73.1662 52.4209 73.1134V69.008H53.6874C54.0462 69.008 54.3523 69.0713 54.6266 69.198C54.8905 69.3246 55.1227 69.4935 55.2915 69.694C55.471 69.8945 55.5976 70.1372 55.6926 70.3905C55.7665 70.6544 55.8087 70.9182 55.8087 71.1715Z" fill="white"/>
<path d="M59.3125 77.8415H65.6764V76.8178H60.8217V73.1662H64.9904V72.2585H60.8217V69.1663H65.6764V68.1426H59.3125V77.8415Z" fill="white"/>
<path d="M75.1638 77.0816C75.1215 77.0816 75.0899 77.0922 75.0477 77.0922C74.8788 77.0922 74.7311 77.0711 74.6044 77.0183C74.4778 76.9655 74.3511 76.9022 74.2456 76.8072C74.1295 76.7122 74.0134 76.5961 73.9079 76.4484C73.7918 76.3006 73.6757 76.1318 73.549 75.9524C73.1797 75.4036 72.8841 74.9709 72.6836 74.6437C72.4726 74.306 72.3142 74.0632 72.1876 73.8838C72.061 73.6939 71.9554 73.5672 71.8815 73.4722C71.8393 73.43 71.7971 73.3878 71.7443 73.3456C72.0398 73.2928 72.3142 73.2084 72.5464 73.0923C72.8736 72.9234 73.1374 72.7018 73.3485 72.4485C73.549 72.1952 73.7073 71.9103 73.8023 71.6148C73.8973 71.3193 73.9395 71.0238 73.9395 70.7494C73.9395 70.4961 73.8868 70.2111 73.7918 69.9156C73.6968 69.6096 73.5174 69.3246 73.2746 69.0608C73.0319 68.7969 72.7047 68.5858 72.2931 68.4064C71.8815 68.2376 71.3644 68.1426 70.7417 68.1426H67.5439V77.8415H69.0531V73.6833H69.5069C69.7497 73.6833 69.9396 73.7044 70.098 73.7466C70.2457 73.7888 70.3829 73.8522 70.499 73.9471C70.6256 74.0421 70.7417 74.1793 70.8473 74.3376C70.9634 74.5065 71.1006 74.7176 71.2694 74.9709L72.3354 76.5434C72.4726 76.7544 72.5992 76.9444 72.7364 77.1133C72.8736 77.2927 73.0213 77.451 73.1797 77.5776C73.338 77.7043 73.5279 77.8098 73.7284 77.8837C73.9395 77.9576 74.1823 77.9998 74.4672 77.9998C74.6677 77.9998 74.8366 77.9892 74.9738 77.9681C75.1215 77.947 75.2587 77.8942 75.3959 77.8204L75.4698 77.7782V77.0288L75.301 77.0605C75.2482 77.0711 75.206 77.0816 75.1638 77.0816ZM69.0426 69.0185H70.2668C70.594 69.0185 70.8895 69.0608 71.1428 69.1557C71.3961 69.2507 71.6177 69.3774 71.8077 69.5357C71.9871 69.694 72.1243 69.884 72.2193 70.1056C72.3142 70.3272 72.367 70.5805 72.367 70.8443C72.367 71.066 72.3248 71.2982 72.2298 71.5303C72.1454 71.7625 72.0082 71.9736 71.8288 72.153C71.6494 72.343 71.4383 72.4907 71.1744 72.6068C70.9211 72.7229 70.6151 72.7862 70.2774 72.7862H69.032V69.0185H69.0426Z" fill="white"/>
<path d="M75.5234 69.1663H79.1222V77.8415H80.6314V69.1663H84.2302V68.1426H75.5234V69.1663Z" fill="white"/>
<path d="M87.7445 68.1426H86.2354V77.8415H87.7445V68.1426Z" fill="white"/>
<path d="M90.4463 77.8415H96.7996V76.8178H91.9449V73.1662H96.1137V72.2585H91.9449V69.1663H96.7996V68.1426H90.4463V77.8415Z" fill="white"/>
<path d="M105.211 73.7362C104.926 73.3668 104.556 73.0607 104.124 72.818C103.702 72.5753 103.237 72.3747 102.741 72.2059C102.256 72.0476 101.802 71.8787 101.39 71.6993C100.989 71.5304 100.651 71.3299 100.377 71.0977C100.134 70.8867 100.008 70.6228 100.008 70.2745C100.008 70.0846 100.05 69.9052 100.134 69.7363C100.219 69.5674 100.345 69.4197 100.514 69.293C100.683 69.1664 100.894 69.0609 101.148 68.9764C101.401 68.892 101.696 68.8603 102.034 68.8603C102.593 68.8603 103.068 68.9764 103.448 69.2086C103.818 69.4302 104.039 69.7785 104.103 70.264L104.124 70.3906H105.327L105.295 70.2218C105.242 69.8735 105.105 69.5463 104.905 69.2719C104.704 68.9975 104.451 68.7548 104.155 68.5648C103.86 68.3749 103.512 68.2271 103.142 68.1321C102.773 68.0371 102.372 67.9844 101.971 67.9844C101.549 67.9844 101.137 68.0371 100.757 68.1532C100.367 68.2693 100.029 68.4276 99.7333 68.6493C99.4378 68.8709 99.1951 69.1453 99.0157 69.4725C98.8362 69.8102 98.7518 70.1901 98.7518 70.6123C98.7518 71.1716 98.8996 71.636 99.1845 71.9843C99.4695 72.322 99.8177 72.6069 100.24 72.8286C100.651 73.0502 101.105 73.2401 101.591 73.3879C102.055 73.5357 102.498 73.7045 102.899 73.8945C103.29 74.0844 103.617 74.3061 103.87 74.5699C104.113 74.8232 104.229 75.1504 104.229 75.5831C104.229 76.1213 104.039 76.5013 103.659 76.744C103.258 76.9973 102.709 77.1239 102.034 77.1239C101.496 77.1239 101.053 77.0501 100.736 76.9129C100.419 76.7757 100.166 76.6068 100.008 76.4168C99.8388 76.2269 99.7333 76.0263 99.67 75.8364C99.6067 75.6253 99.575 75.4459 99.5645 75.3087L99.5539 75.1715H98.3613L98.3719 75.3192C98.393 75.7308 98.4985 76.1002 98.699 76.4379C98.889 76.7651 99.1634 77.0501 99.4906 77.2822C99.8177 77.5144 100.208 77.6833 100.662 77.8099C101.105 77.9366 101.591 77.9999 102.118 77.9999C102.646 77.9999 103.142 77.9366 103.564 77.8099C103.997 77.6833 104.377 77.4933 104.683 77.2506C105 77.0078 105.242 76.7018 105.411 76.3535C105.58 76.0052 105.665 75.6147 105.665 75.1926C105.654 74.6016 105.506 74.1161 105.211 73.7362Z" fill="white"/>
<path d="M17.1815 73.3669H0.854854C0.379935 73.3669 0 72.987 0 72.5121C0 72.0372 0.379935 71.6572 0.854854 71.6572H17.1815C17.6564 71.6572 18.0364 72.0372 18.0364 72.5121C18.0258 72.987 17.6459 73.3669 17.1815 73.3669Z" fill="white"/>
<path d="M126.033 73.3669H109.706C109.231 73.3669 108.852 72.987 108.852 72.5121C108.852 72.0372 109.231 71.6572 109.706 71.6572H126.033C126.508 71.6572 126.888 72.0372 126.888 72.5121C126.888 72.987 126.497 73.3669 126.033 73.3669Z" fill="white"/>
<path d="M3.86264 60.1219H0.654297V35.5H8.88622C10.2477 35.5 11.4297 35.7005 12.4428 36.1016C13.456 36.5026 14.2897 37.0303 14.9546 37.7057C15.6195 38.3706 16.1261 39.1622 16.4533 40.0592C16.7804 40.9668 16.9493 41.9061 16.9493 42.8876C16.9493 43.9219 16.7593 44.8823 16.3899 45.7899C16.01 46.6975 15.4612 47.4891 14.7224 48.1856C13.9837 48.8822 13.0655 49.4204 11.9574 49.8214C10.8598 50.2225 9.59333 50.423 8.15802 50.423C7.31371 50.423 6.54329 50.3702 5.83619 50.2647C5.12909 50.1592 4.47475 50.022 3.86264 49.8637V60.1219ZM3.86264 48.4072C4.35866 48.5972 4.90746 48.7133 5.51958 48.7766C6.13169 48.8399 6.79658 48.8611 7.52479 48.8611C8.58017 48.8611 9.48779 48.6816 10.2371 48.3334C10.9864 47.9851 11.6091 47.5207 12.1051 46.9614C12.6011 46.402 12.96 45.7688 13.1816 45.0828C13.4032 44.3863 13.5193 43.7003 13.5193 43.0248C13.5193 42.3177 13.3927 41.6106 13.1499 40.893C12.9072 40.1753 12.5378 39.5315 12.0418 38.9616C11.5458 38.3917 10.9231 37.9274 10.1738 37.5685C9.42447 37.2203 8.55906 37.0408 7.567 37.0408H3.87319V48.4072H3.86264Z" fill="white"/>
<path d="M20.7275 52.882L17.6352 60.1325H16.0205L26.4371 35.5H28.1995L39.6715 60.1325H36.2626L32.8854 52.882H20.7275ZM26.6059 39.4366H26.4687L21.4029 51.2884H32.1361L26.6059 39.4366Z" fill="white"/>
<path d="M50.5312 35.5C52.1037 35.5 53.4018 35.7216 54.4361 36.1543C55.4704 36.587 56.283 37.1253 56.8846 37.7691C57.4861 38.4128 57.9083 39.1094 58.151 39.8587C58.3937 40.608 58.5204 41.3046 58.5204 41.9378C58.5204 42.6449 58.4043 43.3625 58.1721 44.1013C57.9399 44.8401 57.5705 45.5261 57.0534 46.1593C56.5468 46.7925 55.882 47.3202 55.0799 47.7424C54.2778 48.1645 53.3068 48.4072 52.1881 48.4811V48.6183L52.5364 48.7977C52.8214 48.9349 53.0535 49.1143 53.2541 49.3254C53.4546 49.5365 53.7079 49.8742 54.0245 50.3491C54.3411 50.8135 54.7633 51.4784 55.3015 52.3332C55.8397 53.1881 56.5891 54.3279 57.5706 55.7632C57.8977 56.2592 58.2143 56.6919 58.5098 57.0824C58.8159 57.4729 59.1325 57.8001 59.4597 58.0639C59.7868 58.3383 60.1351 58.5388 60.5151 58.676C60.895 58.8132 61.3277 58.8871 61.8132 58.8871C61.9293 58.8871 62.0453 58.8766 62.1614 58.866C62.2775 58.8555 62.3936 58.8344 62.5097 58.8132V60.1114C62.1825 60.3013 61.8554 60.4174 61.5282 60.4596C61.201 60.5018 60.7789 60.5335 60.2618 60.5335C59.5547 60.5335 58.9531 60.4385 58.4571 60.2486C57.9505 60.0586 57.5072 59.8053 57.1167 59.4887C56.7263 59.1721 56.3569 58.7921 56.0191 58.3489C55.6814 57.9056 55.3437 57.4096 54.9954 56.8713L52.2092 52.7554C51.7871 52.1011 51.4177 51.5523 51.1116 51.0984C50.8056 50.6552 50.4784 50.2858 50.1196 50.0114C49.7713 49.7265 49.3703 49.5259 48.9376 49.4098C48.5049 49.2938 47.9561 49.2304 47.2912 49.2304H45.7398V60.1008H42.542V35.5H50.5312ZM45.7503 47.6685H49.3914C50.3307 47.6685 51.1644 47.4996 51.8821 47.1725C52.5997 46.8453 53.2013 46.4126 53.6973 45.8849C54.1933 45.3572 54.5627 44.7662 54.8055 44.1224C55.0482 43.4786 55.1748 42.8349 55.1748 42.2016C55.1748 41.4523 55.0376 40.7558 54.7738 40.1225C54.4994 39.4893 54.1089 38.9405 53.5918 38.4867C53.0746 38.0329 52.452 37.6741 51.7343 37.4102C51.0167 37.1569 50.2146 37.0197 49.3175 37.0197H45.7503V47.6685Z" fill="white"/>
<path d="M65.5811 60.1219V35.5H73.6652C75.6071 35.5 77.3907 35.8061 79.016 36.4287C80.6307 37.0514 82.0238 37.9063 83.1847 38.9933C84.3456 40.0803 85.2532 41.3784 85.897 42.8771C86.5408 44.3757 86.868 46.001 86.868 47.7318C86.868 49.5365 86.5302 51.1934 85.8654 52.7132C85.2005 54.2224 84.2823 55.531 83.1214 56.6392C81.9605 57.7368 80.6096 58.6022 79.0582 59.2037C77.5068 59.8158 75.8604 60.1219 74.0979 60.1219H65.5811ZM68.7788 58.5811H72.6415C74.5623 58.5811 76.1876 58.2539 77.5385 57.6101C78.8893 56.9663 79.9869 56.122 80.8523 55.0983C81.7177 54.0641 82.351 52.9137 82.752 51.6367C83.153 50.3597 83.3536 49.0827 83.3536 47.8162C83.3536 46.4126 83.1214 45.0511 82.6465 43.753C82.1821 42.4549 81.4961 41.3046 80.5885 40.302C79.6914 39.3099 78.5727 38.5184 77.2324 37.9274C75.9026 37.3364 74.3618 37.0514 72.631 37.0514H68.7683V58.5811H68.7788Z" fill="white"/>
<path d="M107.247 35.5V37.4313H94.5406V46.2648H105.443V47.8796H94.5406V58.1906H107.237V60.1219H91.3428V35.5H107.247Z" fill="white"/>
<path d="M126.149 35.5V37.4313H113.452V46.2648H124.355V47.8796H113.452V58.1906H126.149V60.1219H110.244V35.5H126.149Z" fill="white"/>
</svg>
