<svg width="18" height="18" viewBox="0 0 18 18" fill="none" xmlns="http://www.w3.org/2000/svg">
<path d="M16.858 12.444L13.2121 10.8815C13.0563 10.8151 12.8832 10.8011 12.7189 10.8416C12.5545 10.8821 12.4077 10.9749 12.3006 11.1061L10.686 13.0788C8.15203 11.884 6.11275 9.84476 4.918 7.31077L6.89069 5.69616C7.0221 5.58929 7.11511 5.4425 7.15564 5.27804C7.19617 5.11358 7.18201 4.94039 7.11531 4.78469L5.55278 1.13879C5.47957 0.970953 5.3501 0.833919 5.18668 0.751317C5.02326 0.668716 4.83614 0.645725 4.65758 0.68631L1.27211 1.46757C1.09996 1.50733 0.946366 1.60426 0.8364 1.74254C0.726433 1.88083 0.666586 2.0523 0.666626 2.22898C0.666626 10.5787 7.43432 17.3334 15.7711 17.3334C15.9478 17.3335 16.1193 17.2737 16.2577 17.1637C16.396 17.0538 16.493 16.9001 16.5328 16.7279L17.3141 13.3425C17.3544 13.163 17.3309 12.9752 17.2477 12.8112C17.1644 12.6472 17.0266 12.5174 16.858 12.444Z" fill="#F3F3F3"/>
</svg>
