<svg width="17" height="17" viewBox="0 0 17 17" fill="none" xmlns="http://www.w3.org/2000/svg">
<path d="M15.9403 11.7773L12.351 10.2147C12.1976 10.1483 12.0272 10.1344 11.8654 10.1749C11.7035 10.2154 11.559 10.3082 11.4536 10.4393L9.86404 12.412C7.36935 11.2173 5.36169 9.17801 4.18546 6.64403L6.12757 5.02942C6.25694 4.92254 6.34851 4.77576 6.38841 4.61129C6.42831 4.44683 6.41437 4.27364 6.3487 4.11794L4.8104 0.472044C4.73833 0.304205 4.61086 0.16717 4.44997 0.0845692C4.28909 0.00196786 4.10487 -0.0210227 3.92908 0.019562L0.596092 0.800826C0.426613 0.840578 0.275403 0.937507 0.167141 1.07579C0.0588802 1.21408 -3.90411e-05 1.38555 1.94089e-08 1.56223C1.94089e-08 9.91199 6.66277 16.6667 14.8703 16.6667C15.0442 16.6668 15.2131 16.607 15.3493 16.497C15.4856 16.387 15.581 16.2334 15.6202 16.0612L16.3893 12.6757C16.429 12.4963 16.4059 12.3084 16.324 12.1444C16.242 11.9804 16.1064 11.8506 15.9403 11.7773Z" fill="#1172A8"/>
</svg>
