<svg width="20" height="20" viewBox="0 0 20 20" fill="none" xmlns="http://www.w3.org/2000/svg">
<path d="M19.7263 17.2913L15.8322 13.3971C15.6564 13.2214 15.4182 13.1237 15.1682 13.1237H14.5315C15.6096 11.7449 16.2501 10.0107 16.2501 8.12421C16.2501 3.63636 12.6138 0 8.12592 0C3.63807 0 0.00170898 3.63636 0.00170898 8.12421C0.00170898 12.612 3.63807 16.2484 8.12592 16.2484C10.0125 16.2484 11.7467 15.6079 13.1254 14.5298V15.1665C13.1254 15.4165 13.2231 15.6547 13.3988 15.8305L17.293 19.7246C17.6601 20.0918 18.2538 20.0918 18.6171 19.7246L19.7224 18.6193C20.0896 18.2521 20.0896 17.6584 19.7263 17.2913ZM8.12592 13.1237C5.36447 13.1237 3.1264 10.8896 3.1264 8.12421C3.1264 5.36276 5.36056 3.12469 8.12592 3.12469C10.8874 3.12469 13.1254 5.35885 13.1254 8.12421C13.1254 10.8857 10.8913 13.1237 8.12592 13.1237Z" fill="white"/>
</svg>
