<svg width="265" height="265" viewBox="0 0 265 265" fill="none" xmlns="http://www.w3.org/2000/svg">
<g opacity="0.7">
<path d="M58.2293 35.9306L63.6757 31.8992L64.1402 32.5391L58.005 37.0824L51.2771 27.9958L51.9659 27.4839L58.2293 35.9306Z" fill="#012F48"/>
<path d="M69.1701 16.1095C70.1152 15.5976 71.0443 15.3576 71.9414 15.4056C72.8544 15.4536 73.7034 15.7576 74.4884 16.3175C75.2733 16.8774 75.9621 17.6773 76.5227 18.7331C77.0994 19.789 77.4038 20.7968 77.4518 21.7567C77.4999 22.7165 77.2916 23.5964 76.8431 24.3803C76.3946 25.1642 75.6898 25.8201 74.7447 26.332C73.8156 26.8439 72.8865 27.0679 71.9734 27.0359C71.0603 26.9879 70.2113 26.6999 69.4264 26.14C68.6415 25.5801 67.9527 24.7802 67.392 23.7244C66.8154 22.6685 66.511 21.6607 66.4629 20.7008C66.4149 19.741 66.6231 18.8611 67.0877 18.0772C67.5362 17.2774 68.225 16.6215 69.1701 16.1095ZM69.5385 16.8134C68.7696 17.2294 68.193 17.7733 67.8245 18.4452C67.4561 19.1171 67.2959 19.853 67.344 20.6848C67.392 21.5167 67.6804 22.3806 68.1769 23.2925C68.6735 24.2043 69.2502 24.9082 69.923 25.4041C70.5958 25.9001 71.3006 26.172 72.0695 26.22C72.8384 26.268 73.5913 26.076 74.3762 25.6601C75.1611 25.2282 75.7378 24.6842 76.1063 24.0283C76.4747 23.3724 76.6349 22.6206 76.5868 21.7887C76.5388 20.9568 76.2664 20.0929 75.7699 19.1811C75.2733 18.2692 74.6806 17.5653 74.0078 17.0694C73.335 16.5735 72.6142 16.3015 71.8613 16.2535C71.0924 16.1895 70.3235 16.3815 69.5385 16.8134Z" fill="#012F48"/>
<path d="M91.2601 6.67099L91.0999 18.7812L90.1548 19.1331L82.1294 10.0465L82.9944 9.72653L89.1616 16.7815L90.331 18.2052L90.283 16.3655L90.3951 6.99094L91.2601 6.67099Z" fill="#012F48"/>
<path d="M103.338 14.9897L100.935 3.9514L108.496 2.30365L108.656 3.07153L101.945 4.52731L102.874 8.79867L108.176 7.64684L108.352 8.43073L103.05 9.58255L104.011 14.0299L110.995 12.5101L111.155 13.278L103.338 14.9897Z" fill="#012F48"/>
<path d="M133.31 11.4223L130.218 0L131.115 0.0319952L133.902 10.6544L137.25 0.255961L138.243 0.287957L140.806 10.9264L144.395 0.52792L145.244 0.559915L141.287 11.7262L140.23 11.6782L138.243 3.67944L137.699 1.21582H137.683L136.962 3.63145L134.383 11.4703L133.31 11.4223Z" fill="#012F48"/>
<path d="M156.393 2.27165L154.07 13.326L153.237 13.15L155.544 2.09567L156.393 2.27165ZM162.576 8.83066L162.416 9.61454L154.759 8.01478L154.919 7.2309L162.576 8.83066ZM164.066 3.8714L161.743 14.9257L160.91 14.7498L163.233 3.69543L164.066 3.8714Z" fill="#012F48"/>
<path d="M171.194 17.7093L175.103 7.10294L182.359 9.77453L182.087 10.5104L175.631 8.14278L174.125 12.2382L179.219 14.1099L178.947 14.8618L173.853 12.99L172.283 17.2614L178.995 19.725L178.723 20.4609L171.194 17.7093Z" fill="#012F48"/>
<path d="M195.735 16.1736C196.728 16.7015 197.385 17.3894 197.705 18.2053C198.025 19.0212 197.945 19.869 197.481 20.7489C197.016 21.6288 196.344 22.1407 195.495 22.3167C194.646 22.4926 193.716 22.3007 192.723 21.7727H192.627L189.776 20.237L187.453 24.5403L186.7 24.1404L192.066 14.1899L195.735 16.1736ZM193.06 21.0848C193.861 21.5168 194.581 21.6608 195.206 21.5328C195.831 21.4048 196.328 20.9889 196.696 20.317C197.064 19.6291 197.128 18.9892 196.904 18.3972C196.68 17.8053 196.151 17.2934 195.35 16.8455L192.419 15.2777L190.128 19.5171L193.06 21.0848ZM193.572 21.5488L194.149 28.1558L193.252 27.6758L192.707 21.6288L193.572 21.5488Z" fill="#012F48"/>
<path d="M201.502 32.907L208.197 23.8044L214.429 28.3797L213.964 29.0196L208.422 24.9562L205.827 28.4757L210.2 31.6912L209.719 32.3471L205.362 29.1156L202.655 32.779L208.406 37.0024L207.941 37.6423L201.502 32.907Z" fill="#012F48"/>
<path d="M243.391 59.847L235.429 60.5509L231.825 63.0945L231.329 62.3906L234.933 59.847L238.265 52.6001L238.841 53.4319L236.951 57.4633L235.91 59.687L238.361 59.447L242.798 59.0151L243.391 59.847Z" fill="#012F48"/>
<path d="M250.519 71.8131C251.016 72.773 251.224 73.7009 251.16 74.5967C251.096 75.5086 250.775 76.3405 250.199 77.1083C249.622 77.8762 248.805 78.5481 247.732 79.092C246.659 79.636 245.649 79.9239 244.688 79.9559C243.727 79.9719 242.846 79.7479 242.077 79.284C241.292 78.8041 240.668 78.1002 240.171 77.1403C239.69 76.1965 239.466 75.2686 239.53 74.3568C239.594 73.4449 239.915 72.597 240.491 71.8291C241.068 71.0613 241.885 70.3894 242.958 69.8454C244.032 69.3015 245.041 69.0136 246.002 68.9816C246.963 68.9656 247.844 69.1895 248.613 69.6695C249.398 70.1654 250.039 70.8693 250.519 71.8131ZM249.814 72.1811C249.414 71.3972 248.885 70.8213 248.228 70.4214C247.572 70.0374 246.835 69.8614 246.002 69.8934C245.169 69.9254 244.288 70.1814 243.375 70.6613C242.446 71.1412 241.741 71.7012 241.228 72.3571C240.716 73.013 240.427 73.7169 240.363 74.4847C240.299 75.2366 240.475 76.0205 240.876 76.7884C241.276 77.5723 241.821 78.1642 242.462 78.5481C243.118 78.9321 243.855 79.108 244.688 79.076C245.521 79.044 246.402 78.7881 247.331 78.3082C248.261 77.8282 248.965 77.2683 249.478 76.6124C249.991 75.9565 250.279 75.2526 250.343 74.4847C250.391 73.7489 250.231 72.965 249.814 72.1811Z" fill="#012F48"/>
<path d="M259.586 94.5457L252.778 96.8174C251.448 97.2653 250.311 97.2493 249.382 96.7534C248.453 96.2735 247.764 95.3616 247.315 94.0498C246.883 92.738 246.883 91.6022 247.331 90.6583C247.78 89.6985 248.677 88.9946 250.006 88.5466L256.814 86.275L257.087 87.0908L250.439 89.3145C249.286 89.6985 248.517 90.2744 248.116 91.0422C247.716 91.8101 247.7 92.738 248.068 93.8098C248.437 94.8977 248.997 95.6176 249.782 95.9855C250.567 96.3535 251.528 96.3375 252.682 95.9535L259.329 93.7299L259.586 94.5457Z" fill="#012F48"/>
<path d="M253.883 119.822L254.46 126.573L253.675 126.637L253.034 119.022L264.311 118.062L264.391 118.91L253.883 119.822Z" fill="#012F48"/>
<path d="M264.984 136.315L253.675 136.027L253.691 135.18L265 135.468L264.984 136.315Z" fill="#012F48"/>
<path d="M263.078 155.736L252.473 149.865L252.618 148.858L264.423 146.106L264.295 147.018L255.165 149.113L253.354 149.465L255.004 150.297L263.206 154.825L263.078 155.736Z" fill="#012F48"/>
<path d="M250.023 162.423L260.899 165.527L258.769 172.95L258.016 172.726L259.906 166.119L255.709 164.919L254.22 170.134L253.451 169.91L254.94 164.695L250.551 163.447L248.581 170.31L247.828 170.086L250.023 162.423Z" fill="#012F48"/>
<path d="M236.118 203.041C236.391 202.657 236.727 202.417 237.143 202.337C237.56 202.257 237.96 202.337 238.345 202.593C238.729 202.849 238.954 203.185 239.018 203.617C239.082 204.033 238.986 204.449 238.729 204.833C238.457 205.217 238.121 205.457 237.704 205.537C237.288 205.617 236.887 205.537 236.503 205.281C236.118 205.025 235.894 204.689 235.83 204.273C235.75 203.841 235.846 203.441 236.118 203.041Z" fill="#FF41B9"/>
<path d="M208.582 227.71L203.2 231.837L202.719 231.213L208.774 226.558L215.662 235.516L214.989 236.044L208.582 227.71Z" fill="#012F48"/>
<path d="M200.669 245.931L194.822 236.268L195.559 235.82L201.405 245.483L200.669 245.931Z" fill="#012F48"/>
<path d="M183.256 254.794L182.503 242.715L183.416 242.299L192.098 250.762L191.249 251.146L184.57 244.587L183.304 243.243L183.48 245.083L184.073 254.426L183.256 254.794Z" fill="#012F48"/>
<path d="M170.585 247.419L173.821 258.249L166.42 260.457L166.196 259.705L172.78 257.737L171.53 253.562L166.324 255.113L166.1 254.346L171.306 252.794L170.009 248.426L163.152 250.458L162.928 249.706L170.585 247.419Z" fill="#012F48"/>
<path d="M140.918 253.162L144.971 264.28L144.074 264.328L140.39 253.978L137.939 264.616L136.946 264.664L133.486 254.282L130.795 264.952L129.946 265L132.941 253.546L133.998 253.498L136.641 261.305L137.394 263.72H137.41L137.923 261.241L139.829 253.21L140.918 253.162Z" fill="#012F48"/>
<path d="M110.851 263.032L112.325 251.834L113.174 251.946L111.7 263.144L110.851 263.032ZM111.972 257.977L112.085 257.177L119.838 258.201L119.726 259.001L111.972 257.977ZM118.636 264.056L120.11 252.858L120.959 252.97L119.485 264.168L118.636 264.056Z" fill="#012F48"/>
<path d="M102.714 249.77L99.6219 260.633L92.1892 258.521L92.3975 257.769L99.0132 259.641L100.215 255.449L94.9925 253.962L95.2168 253.194L100.439 254.682L101.688 250.298L94.8163 248.346L95.0245 247.595L102.714 249.77Z" fill="#012F48"/>
<path d="M78.3489 253.162C77.3077 252.698 76.6028 252.074 76.2344 251.29C75.85 250.49 75.866 249.642 76.2665 248.746C76.6669 247.835 77.2917 247.275 78.1407 247.035C78.9897 246.795 79.9187 246.923 80.96 247.371L81.0561 247.355L84.0196 248.666L86.0059 244.187L86.7908 244.539L82.1934 254.858L78.3489 253.162ZM80.6396 248.059C79.8066 247.691 79.0858 247.595 78.4771 247.771C77.8683 247.947 77.4038 248.394 77.0834 249.098C76.763 249.802 76.747 250.458 77.0193 251.034C77.2917 251.61 77.8523 252.09 78.6853 252.458L81.7289 253.802L83.6832 249.402L80.6396 248.059ZM80.095 247.643L79.0217 241.1L79.9508 241.516L80.96 247.515L80.095 247.643Z" fill="#012F48"/>
<path d="M71.3327 236.892L65.3256 246.475L58.7739 242.379L59.1904 241.708L65.0213 245.355L67.344 241.66L62.7466 238.78L63.1791 238.092L67.7765 240.972L70.1954 237.116L64.1402 233.325L64.5567 232.653L71.3327 236.892Z" fill="#012F48"/>
<path d="M27.5533 213.168L35.4346 211.872L38.8306 209.072L39.3752 209.728L35.9792 212.528L33.208 220.015L32.5672 219.231L34.1531 215.072L35.0341 212.768L32.5993 213.2L28.2101 213.952L27.5533 213.168Z" fill="#012F48"/>
<path d="M19.5438 201.746C18.9832 200.834 18.6948 199.922 18.6948 199.01C18.6948 198.098 18.9511 197.234 19.4637 196.418C19.9763 195.603 20.7452 194.883 21.7704 194.259C22.7956 193.635 23.7888 193.267 24.7499 193.171C25.7111 193.075 26.5921 193.235 27.4091 193.651C28.226 194.067 28.9148 194.723 29.4755 195.634C30.0362 196.546 30.3085 197.442 30.3245 198.354C30.3245 199.266 30.0682 200.13 29.5556 200.946C29.043 201.762 28.2741 202.481 27.2489 203.105C26.2237 203.729 25.2305 204.097 24.2694 204.193C23.3082 204.289 22.4272 204.129 21.6102 203.713C20.7933 203.313 20.1045 202.657 19.5438 201.746ZM20.2166 201.346C20.6812 202.098 21.2578 202.641 21.9306 202.977C22.6194 203.313 23.3723 203.441 24.1893 203.329C25.0062 203.233 25.8713 202.913 26.7523 202.369C27.6333 201.826 28.3061 201.202 28.7707 200.514C29.2352 199.826 29.4595 199.09 29.4755 198.338C29.4755 197.57 29.2512 196.818 28.8027 196.066C28.3382 195.315 27.7615 194.771 27.0887 194.435C26.4159 194.099 25.647 193.987 24.83 194.083C23.9971 194.179 23.1481 194.499 22.267 195.043C21.386 195.586 20.7132 196.21 20.2487 196.898C19.7841 197.602 19.5598 198.322 19.5438 199.074C19.5278 199.826 19.7521 200.578 20.2166 201.346Z" fill="#012F48"/>
<path d="M8.79529 179.781L15.4111 176.997C16.7086 176.453 17.8459 176.389 18.807 176.805C19.7682 177.221 20.5211 178.069 21.0657 179.333C21.6103 180.613 21.6904 181.733 21.306 182.724C20.9375 183.716 20.0886 184.484 18.791 185.028L12.1913 187.812L11.8549 187.028L18.3105 184.308C19.4318 183.844 20.1526 183.204 20.489 182.42C20.8254 181.621 20.7774 180.709 20.3288 179.653C19.8803 178.597 19.2556 177.925 18.4546 177.621C17.6537 177.317 16.6926 177.397 15.5712 177.861L9.11566 180.581L8.79529 179.781Z" fill="#012F48"/>
<path d="M12.5757 154.153L11.5025 147.466L12.2874 147.338L13.5048 154.873L2.3397 156.664L2.21155 155.817L12.5757 154.153Z" fill="#012F48"/>
<path d="M0.000923011 135.276C-0.0150958 134.204 0.209168 133.276 0.673713 132.492C1.13826 131.708 1.79503 131.1 2.66005 130.668C3.52506 130.236 4.55027 130.012 5.75168 129.996C6.95309 129.98 7.99431 130.172 8.85933 130.588C9.74036 131.004 10.4132 131.58 10.8937 132.364C11.3743 133.132 11.6306 134.06 11.6466 135.132C11.6626 136.187 11.4384 137.115 10.9738 137.899C10.5093 138.683 9.85249 139.307 8.98748 139.739C8.12246 140.171 7.09726 140.395 5.89585 140.411C4.69444 140.427 3.65321 140.235 2.7882 139.819C1.90716 139.403 1.23437 138.811 0.753807 138.043C0.273243 137.259 0.0169418 136.347 0.000923011 135.276ZM0.785845 135.276C0.801864 136.155 1.01011 136.907 1.4266 137.547C1.84309 138.187 2.43578 138.667 3.18867 139.019C3.94155 139.355 4.85462 139.515 5.87983 139.499C6.92105 139.483 7.8181 139.291 8.57099 138.939C9.32387 138.587 9.90055 138.075 10.285 137.419C10.6855 136.763 10.8777 136.011 10.8617 135.132C10.8457 134.236 10.6374 133.484 10.2209 132.844C9.80444 132.204 9.21174 131.724 8.45886 131.372C7.70597 131.036 6.7929 130.86 5.7677 130.876C4.72647 130.892 3.82942 131.084 3.09255 131.452C2.33967 131.82 1.76299 132.316 1.37854 132.972C0.962052 133.612 0.769826 134.38 0.785845 135.276Z" fill="#012F48"/>
<path d="M1.71493 111.423L12.4155 117.102L12.2873 118.11L0.529541 121.07L0.641673 120.158L9.74036 117.902L11.5505 117.518L9.88453 116.718L1.6028 112.319L1.71493 111.423Z" fill="#012F48"/>
<path d="M14.6581 104.512L3.71729 101.585L5.71964 94.1298L6.48854 94.3378L4.71045 100.977L8.93942 102.097L10.3491 96.8494L11.134 97.0573L9.72434 102.305L14.1295 103.488L15.9717 96.5934L16.7406 96.8014L14.6581 104.512Z" fill="#012F48"/>
<path d="M27.8577 63.6544C27.6014 64.0383 27.265 64.2943 26.8485 64.3743C26.432 64.4703 26.0315 64.3903 25.6471 64.1343C25.2626 63.8784 25.0384 63.5424 24.9583 63.1265C24.8782 62.7106 24.9743 62.2946 25.2306 61.9107C25.4869 61.5267 25.8233 61.2708 26.2398 61.1908C26.6563 61.0948 27.0567 61.1748 27.4412 61.4307C27.8257 61.6867 28.0499 62.0227 28.13 62.4386C28.2101 62.8545 28.114 63.2545 27.8577 63.6544Z" fill="#FF41B9"/>
</g>
</svg>
