<svg width="9" height="8" viewBox="0 0 9 8" fill="none" xmlns="http://www.w3.org/2000/svg">
<path fill-rule="evenodd" clip-rule="evenodd" d="M4.14911 0C4.39718 0 4.61692 0.160058 4.693 0.396175L5.42994 2.68323H7.72675C7.97534 2.68323 8.19542 2.84395 8.27107 3.08076C8.34673 3.31756 8.2606 3.57611 8.05805 3.72024L6.18791 5.05102L6.90462 7.25161C6.98133 7.48715 6.89755 7.74529 6.69714 7.89088C6.49672 8.03648 6.22533 8.03636 6.02504 7.8906L4.14911 6.52537L2.27318 7.8906C2.07289 8.03636 1.80149 8.03648 1.60108 7.89088C1.40067 7.74529 1.31688 7.48715 1.3936 7.25161L2.1103 5.05102L0.240164 3.72024C0.0376155 3.57611 -0.0485099 3.31756 0.0271445 3.08076C0.102799 2.84395 0.322873 2.68323 0.571469 2.68323H2.86828L3.60522 0.396175C3.6813 0.160058 3.90104 0 4.14911 0Z" fill="#FFFDFC"/>
</svg>
