<svg width="20" height="15" viewBox="0 0 20 15" fill="none" xmlns="http://www.w3.org/2000/svg">
<path d="M17.9442 3.73827C17.9569 3.90232 17.9569 4.06641 17.9569 4.23047C17.9569 9.23435 13.8326 15 6.29444 15C3.97209 15 1.81473 14.3789 0 13.3008C0.329962 13.3359 0.64719 13.3477 0.989848 13.3477C2.90607 13.3477 4.67006 12.75 6.0787 11.7305C4.27666 11.6953 2.7665 10.6055 2.24618 9.10547C2.50001 9.1406 2.7538 9.16405 3.02032 9.16405C3.38833 9.16405 3.75638 9.11715 4.099 9.03516C2.22083 8.68357 0.812152 7.16015 0.812152 5.32031V5.27345C1.35782 5.5547 1.99239 5.73048 2.66493 5.75389C1.56087 5.07419 0.837542 3.91405 0.837542 2.60154C0.837542 1.89842 1.04055 1.25389 1.3959 0.691389C3.41369 2.98826 6.4467 4.48824 9.8477 4.65233C9.78426 4.37108 9.74617 4.07814 9.74617 3.78516C9.74617 1.6992 11.5736 0 13.8452 0C15.0254 0 16.0914 0.45703 16.8401 1.19531C17.7665 1.03126 18.6548 0.714835 19.4416 0.281252C19.137 1.16018 18.4898 1.89846 17.6396 2.36718C18.4645 2.28519 19.264 2.0742 20 1.78126C19.4417 2.53123 18.7437 3.19917 17.9442 3.73827Z" fill="white"/>
</svg>
