<svg width="20" height="13" viewBox="0 0 20 13" fill="none" xmlns="http://www.w3.org/2000/svg">
<path d="M19.5821 2.03406C19.3521 1.23341 18.6744 0.602841 17.8139 0.388849C16.2542 0 10 0 10 0C10 0 3.74586 0 2.18613 0.388849C1.32565 0.602875 0.647936 1.23341 0.417919 2.03406C0 3.48529 0 6.51314 0 6.51314C0 6.51314 0 9.54098 0.417919 10.9922C0.647936 11.7929 1.32565 12.3972 2.18613 12.6112C3.74586 13 10 13 10 13C10 13 16.2541 13 17.8139 12.6112C18.6744 12.3972 19.3521 11.7929 19.5821 10.9922C20 9.54098 20 6.51314 20 6.51314C20 6.51314 20 3.48529 19.5821 2.03406ZM7.95453 9.2622V3.76408L13.1818 6.5132L7.95453 9.2622Z" fill="white"/>
</svg>
